<svg id="svg" version="1.1" width="400" height="400" viewBox="0 0 400 400" xmlns="http://www.w3.org/2000/svg" xmlns:xlink="http://www.w3.org/1999/xlink" ><g id="svgg"><path id="path0" d="M0.057 188.300 C 0.088 291.865,0.252 375.430,0.422 374.000 C 0.591 372.570,0.940 369.870,1.196 368.000 C 1.452 366.130,1.833 363.160,2.043 361.400 C 2.252 359.640,2.587 356.940,2.788 355.400 C 2.989 353.860,3.344 351.115,3.576 349.300 C 3.809 347.485,4.193 344.515,4.428 342.700 C 4.664 340.885,5.013 338.140,5.203 336.600 C 5.872 331.194,6.454 326.574,6.815 323.800 C 7.015 322.260,7.374 319.470,7.611 317.600 C 7.849 315.730,8.217 312.850,8.430 311.200 C 8.643 309.550,8.989 306.850,9.200 305.200 C 9.411 303.550,9.756 300.850,9.966 299.200 C 10.576 294.427,11.216 289.244,11.595 286.000 C 11.788 284.350,12.055 282.190,12.189 281.200 C 12.323 280.210,12.606 278.005,12.817 276.300 C 13.027 274.595,13.380 271.805,13.599 270.100 C 13.819 268.395,14.450 263.220,15.002 258.600 C 16.013 250.142,16.511 246.154,17.199 241.000 C 17.816 236.376,18.026 234.748,18.422 231.500 C 18.929 227.341,19.540 222.448,20.007 218.800 C 20.219 217.150,20.585 214.270,20.821 212.400 C 21.057 210.530,21.414 207.740,21.615 206.200 C 21.815 204.660,22.174 201.870,22.411 200.000 C 22.649 198.130,23.017 195.250,23.230 193.600 C 23.443 191.950,23.789 189.250,24.000 187.600 C 24.211 185.950,24.556 183.250,24.766 181.600 C 24.977 179.950,25.351 176.980,25.597 175.000 C 26.186 170.254,26.725 166.039,27.182 162.600 C 27.765 158.204,28.356 153.276,28.702 149.910 C 28.877 148.211,29.204 146.636,29.428 146.412 C 29.701 146.139,47.414 145.969,82.819 145.901 L 135.800 145.800 135.681 144.800 C 135.615 144.250,135.411 143.350,135.227 142.800 C 134.589 140.893,134.112 138.973,131.647 128.400 C 125.917 103.827,126.819 76.809,133.991 58.206 C 134.676 56.430,135.610 54.304,136.104 53.400 C 136.344 52.960,137.024 51.683,137.616 50.562 C 142.923 40.509,151.931 31.682,162.355 26.320 C 163.981 25.484,165.556 24.800,165.855 24.800 C 166.155 24.800,166.400 24.620,166.400 24.400 C 166.400 24.180,166.749 24.000,167.176 24.000 C 167.603 24.000,168.064 23.820,168.200 23.600 C 168.336 23.380,168.851 23.200,169.344 23.200 C 169.837 23.200,170.411 23.051,170.620 22.870 C 170.829 22.688,171.810 22.309,172.800 22.028 C 173.790 21.747,175.013 21.355,175.519 21.158 C 176.024 20.961,176.959 20.800,177.595 20.800 C 178.232 20.800,178.849 20.644,178.967 20.453 C 179.353 19.829,186.524 18.911,195.011 18.399 C 204.076 17.853,216.120 18.543,222.500 19.974 C 225.386 20.621,228.077 21.210,229.305 21.464 C 229.913 21.590,230.508 21.851,230.629 22.046 C 230.749 22.241,231.276 22.400,231.800 22.400 C 232.324 22.400,232.864 22.580,233.000 22.800 C 233.136 23.020,233.580 23.200,233.986 23.200 C 234.392 23.200,235.416 23.539,236.262 23.953 C 237.108 24.367,238.700 25.128,239.800 25.644 C 247.561 29.284,255.023 35.177,260.004 41.600 C 260.772 42.590,261.504 43.490,261.630 43.600 C 265.250 46.748,271.878 62.822,273.628 72.700 C 273.833 73.855,274.192 75.835,274.426 77.100 C 276.101 86.151,276.116 105.017,274.455 114.800 C 274.250 116.010,273.967 117.720,273.826 118.600 C 273.492 120.683,272.827 124.184,272.381 126.200 C 270.890 132.944,269.480 138.732,268.338 142.800 C 268.121 143.570,267.846 144.605,267.726 145.100 L 267.507 146.000 321.316 146.000 L 375.126 146.000 375.370 148.300 C 375.504 149.565,375.786 152.130,375.998 154.000 C 376.209 155.870,376.575 159.200,376.810 161.400 C 377.044 163.600,377.408 166.975,377.618 168.900 C 377.828 170.825,378.169 173.975,378.376 175.900 C 378.748 179.372,379.196 183.488,379.998 190.800 C 380.923 199.236,381.176 201.570,381.580 205.400 C 381.812 207.600,382.177 211.020,382.391 213.000 C 382.605 214.980,382.957 218.310,383.174 220.400 C 383.391 222.490,383.750 225.820,383.971 227.800 C 384.193 229.780,384.648 234.010,384.982 237.200 C 385.317 240.390,385.784 244.800,386.022 247.000 C 386.259 249.200,386.627 252.710,386.839 254.800 C 387.478 261.082,387.996 265.998,388.422 269.800 C 388.643 271.780,388.997 275.020,389.207 277.000 C 389.957 284.051,390.449 288.648,390.813 292.000 C 391.016 293.870,391.375 297.200,391.610 299.400 C 391.844 301.600,392.204 304.930,392.410 306.800 C 392.615 308.670,392.974 312.000,393.208 314.200 C 393.442 316.400,393.796 319.640,393.994 321.400 C 394.192 323.160,394.540 326.310,394.768 328.400 C 394.995 330.490,395.370 333.910,395.600 336.000 C 395.830 338.090,396.189 341.420,396.398 343.400 C 396.812 347.332,397.393 352.699,397.978 358.000 C 398.393 361.751,399.107 368.271,399.578 372.600 C 399.746 374.140,399.909 290.935,399.941 187.700 L 400.000 0.000 200.000 0.000 L 0.000 0.000 0.057 188.300 M196.000 54.762 C 194.790 54.928,192.990 55.338,192.000 55.674 C 191.010 56.010,189.435 56.519,188.500 56.806 C 187.565 57.093,186.800 57.479,186.800 57.664 C 186.800 57.849,186.440 58.000,186.000 58.000 C 185.560 58.000,185.200 58.136,185.200 58.302 C 185.200 58.469,184.615 58.859,183.900 59.170 C 183.185 59.481,182.510 59.841,182.400 59.970 C 182.290 60.099,181.530 60.704,180.711 61.314 C 178.102 63.259,172.000 69.705,172.000 70.517 C 172.000 70.630,171.409 71.775,170.686 73.062 C 166.247 80.963,165.397 91.782,168.489 101.000 C 171.419 109.732,178.134 117.394,186.100 121.092 C 186.925 121.475,187.600 121.926,187.600 122.094 C 187.600 122.262,188.039 122.400,188.576 122.400 C 189.113 122.400,189.664 122.580,189.800 122.800 C 189.936 123.020,190.566 123.200,191.200 123.200 C 191.834 123.200,192.452 123.360,192.573 123.556 C 193.526 125.098,209.231 125.080,210.980 123.536 C 211.189 123.351,211.776 123.200,212.285 123.200 C 212.794 123.200,213.523 123.036,213.905 122.835 C 214.287 122.634,215.590 121.997,216.800 121.419 C 225.530 117.250,232.791 109.102,235.174 100.800 C 235.459 99.810,235.838 98.640,236.016 98.200 C 236.893 96.042,237.262 88.108,236.666 84.200 C 235.479 76.405,230.479 67.325,225.049 63.105 C 224.142 62.400,223.130 61.535,222.800 61.183 C 222.470 60.831,221.390 60.106,220.400 59.572 C 219.410 59.037,218.540 58.465,218.467 58.300 C 218.393 58.135,217.988 58.000,217.567 58.000 C 217.145 58.000,216.800 57.864,216.800 57.698 C 216.800 57.340,215.296 56.705,212.800 56.009 C 211.810 55.733,210.460 55.339,209.800 55.135 C 208.197 54.639,198.761 54.384,196.000 54.762 M47.808 168.100 C 47.647 168.815,47.365 170.660,47.181 172.200 C 46.997 173.740,46.650 176.530,46.409 178.400 C 46.169 180.270,45.794 183.240,45.576 185.000 C 45.357 186.760,45.015 189.460,44.815 191.000 C 44.614 192.540,44.248 195.420,44.000 197.400 C 43.752 199.380,43.377 202.350,43.166 204.000 C 42.956 205.650,42.611 208.350,42.400 210.000 C 42.189 211.650,41.829 214.440,41.600 216.200 C 41.371 217.960,41.011 220.750,40.800 222.400 C 40.589 224.050,40.244 226.750,40.034 228.400 C 39.823 230.050,39.455 232.930,39.217 234.800 C 38.979 236.670,38.696 239.100,38.590 240.200 C 38.483 241.300,38.225 243.370,38.016 244.800 C 37.806 246.230,37.444 248.974,37.210 250.899 C 36.976 252.823,36.604 255.793,36.383 257.499 C 35.930 261.004,33.777 278.432,33.160 283.600 C 32.673 287.678,32.094 292.321,31.565 296.400 C 31.350 298.050,30.996 300.840,30.776 302.600 C 30.557 304.360,30.204 307.150,29.993 308.800 C 29.781 310.450,29.415 313.330,29.179 315.200 C 28.943 317.070,28.581 319.905,28.375 321.500 C 28.169 323.095,27.831 325.705,27.625 327.300 C 27.419 328.895,27.048 331.820,26.800 333.800 C 26.552 335.780,26.177 338.750,25.966 340.400 C 24.967 348.222,24.790 349.613,24.412 352.600 C 24.189 354.360,23.894 356.925,23.757 358.300 L 23.507 360.800 200.399 360.800 L 377.291 360.800 377.026 359.500 C 376.881 358.785,376.591 356.535,376.381 354.500 C 375.675 347.641,374.060 332.662,373.200 325.000 C 372.953 322.800,372.594 319.470,372.403 317.600 C 372.211 315.730,371.858 312.490,371.618 310.400 C 371.378 308.310,371.010 304.980,370.800 303.000 C 370.590 301.020,370.234 297.735,370.009 295.700 C 369.467 290.797,368.936 285.887,368.420 281.000 C 367.838 275.491,367.300 270.462,366.834 266.200 C 366.618 264.220,366.253 260.800,366.023 258.600 C 365.793 256.400,365.422 252.890,365.198 250.800 C 364.974 248.710,364.515 244.390,364.179 241.200 C 363.843 238.010,363.388 233.690,363.168 231.600 C 362.947 229.510,362.590 226.090,362.374 224.000 C 362.158 221.910,361.800 218.580,361.579 216.600 C 361.358 214.620,360.993 211.200,360.768 209.000 C 360.543 206.800,360.198 203.560,360.000 201.800 C 359.802 200.040,359.442 196.710,359.198 194.400 C 358.955 192.090,358.586 188.625,358.378 186.700 C 357.558 179.107,357.233 176.048,356.861 172.400 C 356.648 170.310,356.346 168.195,356.190 167.700 L 355.907 166.800 308.341 166.800 C 263.392 166.800,260.763 166.839,260.551 167.500 C 260.428 167.885,260.164 168.605,259.964 169.100 C 259.764 169.595,259.420 170.450,259.200 171.000 C 258.980 171.550,258.620 172.450,258.400 173.000 C 258.180 173.550,257.838 174.405,257.640 174.900 C 257.443 175.395,257.061 176.430,256.793 177.200 C 256.525 177.970,256.073 179.140,255.787 179.800 C 255.502 180.460,254.606 182.606,253.797 184.568 C 250.555 192.426,241.908 209.974,241.100 210.333 C 240.935 210.407,240.800 210.812,240.800 211.233 C 240.800 211.655,240.620 212.000,240.400 212.000 C 240.180 212.000,240.000 212.157,240.000 212.349 C 240.000 212.792,235.916 220.016,234.370 222.307 C 233.726 223.260,233.200 224.128,233.200 224.235 C 233.200 224.343,232.120 226.037,230.800 228.000 C 229.480 229.963,228.400 231.756,228.400 231.985 C 228.400 232.213,228.220 232.400,228.000 232.400 C 227.780 232.400,227.600 232.670,227.600 233.000 C 227.600 233.330,227.420 233.600,227.200 233.600 C 226.980 233.600,226.800 233.836,226.800 234.125 C 226.800 234.413,226.440 235.036,226.000 235.508 C 225.560 235.980,225.200 236.463,225.200 236.580 C 225.200 236.697,224.615 237.569,223.900 238.517 C 223.185 239.465,222.286 240.682,221.903 241.220 C 218.648 245.792,211.781 254.699,210.814 255.600 C 210.696 255.710,209.610 256.970,208.401 258.400 C 207.191 259.830,205.796 261.413,205.301 261.918 C 204.154 263.087,204.166 263.531,205.354 263.983 C 211.391 266.278,210.250 273.613,203.254 277.479 C 201.794 278.285,199.596 279.618,198.369 280.441 C 193.242 283.877,190.616 284.466,187.594 282.858 C 183.975 280.933,183.314 275.430,186.324 272.275 C 187.340 271.211,193.260 267.200,193.816 267.200 C 193.959 267.200,194.615 266.817,195.273 266.348 C 195.931 265.880,197.241 265.105,198.185 264.627 L 199.902 263.758 198.451 262.152 C 195.932 259.363,193.064 255.985,192.443 255.076 C 192.114 254.594,191.557 253.930,191.205 253.600 C 190.553 252.988,187.698 249.481,186.133 247.370 C 180.219 239.391,174.000 230.297,174.000 229.627 C 174.000 229.392,173.820 229.200,173.600 229.200 C 173.380 229.200,173.200 228.964,173.200 228.675 C 173.200 228.387,172.840 227.764,172.400 227.292 C 171.960 226.820,171.600 226.328,171.600 226.199 C 171.600 226.070,170.731 224.667,169.668 223.082 C 165.149 216.340,157.609 201.929,150.789 187.000 C 149.291 183.723,146.361 176.382,144.361 170.900 C 143.900 169.635,143.329 168.195,143.093 167.700 L 142.665 166.800 95.382 166.800 L 48.100 166.800 47.808 168.100 M313.827 191.617 C 319.054 192.536,320.666 193.873,321.347 197.853 C 322.220 202.957,318.576 205.598,310.724 205.553 C 308.016 205.537,305.293 205.721,304.674 205.962 C 297.952 208.576,291.761 200.871,296.231 195.455 C 298.042 193.260,299.890 192.612,306.600 191.816 C 309.020 191.529,311.102 191.273,311.227 191.247 C 311.351 191.221,312.521 191.388,313.827 191.617 M338.884 208.465 C 343.217 211.531,344.627 222.460,341.669 230.046 C 338.860 237.247,328.165 233.916,328.993 226.098 C 329.416 222.103,329.368 218.478,328.860 216.000 C 327.554 209.634,333.849 204.902,338.884 208.465 M323.866 243.767 C 328.036 246.601,327.965 252.392,323.726 255.276 C 319.339 258.260,309.837 261.561,307.116 261.046 C 303.706 260.402,301.604 257.897,301.601 254.474 C 301.599 250.471,303.346 248.603,308.400 247.206 C 309.390 246.933,310.560 246.566,311.000 246.391 C 311.440 246.216,312.070 245.966,312.400 245.835 C 312.730 245.705,314.080 244.983,315.400 244.232 C 318.528 242.451,321.675 242.278,323.866 243.767 M284.320 250.562 C 289.833 253.430,289.048 261.625,283.107 263.225 C 279.618 264.165,265.585 263.932,264.153 262.910 C 260.213 260.100,260.460 254.076,264.626 251.346 C 266.450 250.151,282.316 249.519,284.320 250.562 M243.782 253.018 C 248.195 255.112,249.280 260.671,245.918 263.958 C 244.540 265.306,243.140 265.836,239.400 266.428 C 238.080 266.637,236.010 266.998,234.800 267.231 C 225.620 268.999,221.200 267.117,221.200 261.439 C 221.200 256.832,223.683 255.076,232.000 253.799 C 234.310 253.444,236.830 253.003,237.600 252.818 C 239.869 252.274,242.386 252.356,243.782 253.018 M98.880 264.816 C 103.219 266.021,104.885 272.366,101.732 275.679 C 100.042 277.455,99.448 277.662,95.018 278.017 C 92.058 278.253,90.199 278.646,88.177 279.463 C 82.018 281.949,77.200 279.555,77.200 274.008 C 77.200 270.059,78.663 268.556,85.000 265.997 C 88.476 264.594,95.828 263.968,98.880 264.816 M173.392 288.115 C 177.704 290.557,177.934 295.930,173.876 299.420 C 163.108 308.679,156.105 310.494,153.191 304.782 C 151.039 300.564,152.300 298.117,159.200 293.125 C 167.724 286.959,169.958 286.170,173.392 288.115 M71.080 288.838 C 73.939 289.899,75.576 293.548,74.884 297.318 C 74.148 301.326,73.814 304.129,73.945 305.200 C 74.916 313.165,68.103 317.961,62.644 313.155 C 59.793 310.645,59.355 304.054,61.412 294.600 C 62.526 289.479,66.470 287.128,71.080 288.838 M139.563 309.174 C 142.110 310.987,143.032 314.793,141.604 317.593 C 140.908 318.957,138.588 321.200,137.874 321.200 C 137.736 321.200,136.583 321.669,135.312 322.243 C 132.871 323.345,130.728 324.272,129.400 324.800 C 128.960 324.975,127.887 325.433,127.016 325.818 C 121.430 328.284,115.771 324.701,116.514 319.168 C 116.954 315.883,119.009 314.196,126.200 311.213 C 126.640 311.031,127.716 310.566,128.590 310.179 C 134.052 307.767,137.184 307.480,139.563 309.174 M93.164 320.635 C 99.088 320.770,99.850 320.868,100.985 321.646 C 104.839 324.287,105.152 329.742,101.613 332.600 C 97.772 335.703,82.972 334.957,79.300 331.476 C 78.585 330.798,78.000 329.929,78.000 329.545 C 78.000 329.161,77.820 328.736,77.600 328.600 C 77.019 328.241,77.110 325.911,77.767 324.349 C 79.003 321.411,81.549 319.882,84.600 320.246 C 85.700 320.377,89.554 320.552,93.164 320.635 M0.000 391.000 L 0.000 400.000 200.000 400.000 L 400.000 400.000 400.000 391.000 L 400.000 382.000 200.000 382.000 L 0.000 382.000 0.000 391.000 " stroke="none" fill="#ffffff" fill-rule="evenodd"></path><path id="path1" d="M201.105 53.483 C 201.602 53.579,202.322 53.575,202.705 53.475 C 203.087 53.375,202.680 53.296,201.800 53.301 C 200.920 53.305,200.607 53.387,201.105 53.483 M197.305 53.887 C 197.914 53.979,198.814 53.977,199.305 53.882 C 199.797 53.787,199.300 53.711,198.200 53.714 C 197.100 53.717,196.697 53.795,197.305 53.887 M204.500 53.887 C 205.105 53.978,206.095 53.978,206.700 53.887 C 207.305 53.795,206.810 53.720,205.600 53.720 C 204.390 53.720,203.895 53.795,204.500 53.887 M191.200 55.000 C 190.430 55.297,190.070 55.539,190.400 55.539 C 190.730 55.539,191.630 55.297,192.400 55.000 C 193.170 54.703,193.530 54.461,193.200 54.461 C 192.870 54.461,191.970 54.703,191.200 55.000 M211.200 55.000 C 211.970 55.297,212.870 55.539,213.200 55.539 C 213.530 55.539,213.170 55.297,212.400 55.000 C 211.630 54.703,210.730 54.461,210.400 54.461 C 210.070 54.461,210.430 54.703,211.200 55.000 M186.700 56.629 C 185.149 57.470,185.325 57.761,186.900 56.959 C 188.408 56.193,188.675 55.994,188.167 56.016 C 187.965 56.025,187.305 56.301,186.700 56.629 M176.174 64.107 L 174.600 65.799 176.196 64.399 C 177.073 63.630,177.868 62.955,177.962 62.900 C 178.056 62.845,178.047 62.713,177.941 62.607 C 177.835 62.501,177.040 63.176,176.174 64.107 M226.800 63.800 C 227.546 64.570,228.247 65.200,228.357 65.200 C 228.467 65.200,227.946 64.570,227.200 63.800 C 226.454 63.030,225.753 62.400,225.643 62.400 C 225.533 62.400,226.054 63.030,226.800 63.800 M228.817 65.886 C 228.826 66.059,229.576 67.010,230.483 68.000 C 232.200 69.875,231.835 69.165,229.910 66.886 C 229.299 66.163,228.808 65.713,228.817 65.886 M168.652 74.946 C 167.727 76.895,167.870 77.324,168.814 75.432 C 169.245 74.569,169.531 73.798,169.451 73.717 C 169.370 73.637,169.011 74.190,168.652 74.946 M166.846 80.067 C 166.821 80.434,166.696 81.064,166.570 81.467 C 166.352 82.162,166.363 82.163,166.797 81.487 C 167.048 81.096,167.173 80.466,167.073 80.087 C 166.911 79.468,166.888 79.466,166.846 80.067 M237.062 82.600 C 237.196 83.480,237.372 84.275,237.453 84.367 C 237.756 84.710,237.529 82.568,237.181 81.800 C 236.929 81.242,236.893 81.485,237.062 82.600 M165.825 85.625 C 165.670 87.194,165.627 88.561,165.729 88.662 C 165.831 88.764,166.043 87.566,166.200 86.000 C 166.357 84.434,166.400 83.067,166.296 82.963 C 166.192 82.858,165.980 84.056,165.825 85.625 M237.709 89.600 C 237.709 90.590,237.787 90.995,237.882 90.500 C 237.978 90.005,237.978 89.195,237.882 88.700 C 237.787 88.205,237.709 88.610,237.709 89.600 M165.680 91.400 C 165.668 92.060,165.803 93.410,165.980 94.400 C 166.216 95.728,166.305 95.885,166.320 95.000 C 166.332 94.340,166.197 92.990,166.020 92.000 C 165.784 90.672,165.695 90.515,165.680 91.400 M237.249 95.400 C 237.216 95.840,237.096 96.650,236.983 97.200 L 236.777 98.200 237.206 97.219 C 237.442 96.679,237.561 95.869,237.472 95.419 C 237.313 94.621,237.307 94.621,237.249 95.400 M169.600 106.000 C 170.049 106.880,170.506 107.600,170.616 107.600 C 170.726 107.600,170.449 106.880,170.000 106.000 C 169.551 105.120,169.094 104.400,168.984 104.400 C 168.874 104.400,169.151 105.120,169.600 106.000 M232.600 108.000 C 232.259 108.660,232.069 109.200,232.179 109.200 C 232.289 109.200,232.659 108.660,233.000 108.000 C 233.341 107.340,233.531 106.800,233.421 106.800 C 233.311 106.800,232.941 107.340,232.600 108.000 M171.564 109.533 C 171.780 109.936,172.271 110.521,172.655 110.833 C 173.087 111.184,172.990 110.904,172.401 110.100 C 171.351 108.665,170.957 108.398,171.564 109.533 M230.039 111.600 C 229.111 112.700,228.498 113.592,228.676 113.583 C 229.002 113.566,232.204 109.600,231.892 109.600 C 231.800 109.600,230.966 110.500,230.039 111.600 M176.000 115.000 C 176.746 115.770,177.447 116.400,177.557 116.400 C 177.667 116.400,177.146 115.770,176.400 115.000 C 175.654 114.230,174.953 113.600,174.843 113.600 C 174.733 113.600,175.254 114.230,176.000 115.000 M226.000 116.070 C 224.468 117.488,224.286 117.739,225.400 116.897 C 226.884 115.776,228.734 113.978,228.362 114.017 C 228.273 114.027,227.210 114.951,226.000 116.070 M178.124 116.677 C 178.460 117.221,181.600 119.755,181.600 119.482 C 181.600 119.380,180.753 118.603,179.719 117.755 C 178.684 116.907,177.966 116.422,178.124 116.677 M193.541 124.901 C 193.743 125.103,194.333 125.201,194.854 125.119 C 195.655 124.993,195.598 124.937,194.487 124.752 C 193.693 124.621,193.319 124.679,193.541 124.901 M200.900 125.876 C 201.285 125.976,201.915 125.976,202.300 125.876 C 202.685 125.775,202.370 125.693,201.600 125.693 C 200.830 125.693,200.515 125.775,200.900 125.876 M83.287 146.301 C 41.153 146.382,29.937 146.507,29.799 146.901 C 29.660 147.301,27.565 163.636,25.171 183.000 C 24.488 188.523,23.969 192.650,23.587 195.600 C 23.373 197.250,23.007 200.130,22.775 202.000 C 22.542 203.870,22.193 206.660,22.000 208.200 C 21.807 209.740,21.447 212.620,21.200 214.600 C 20.953 216.580,20.587 219.460,20.387 221.000 C 19.697 226.301,18.886 232.694,18.000 239.800 C 17.753 241.780,17.393 244.660,17.200 246.200 C 17.007 247.740,16.658 250.530,16.424 252.400 C 16.191 254.270,15.820 257.150,15.600 258.800 C 15.380 260.450,15.029 263.240,14.818 265.000 C 14.608 266.760,13.252 277.560,11.804 289.000 C 10.356 300.440,8.998 311.195,8.786 312.900 C 7.923 319.832,7.580 322.555,7.172 325.700 C 6.936 327.515,6.587 330.260,6.396 331.800 C 5.913 335.695,5.217 341.278,4.800 344.600 C 4.607 346.140,4.247 349.020,4.000 351.000 C 3.753 352.980,3.377 355.950,3.163 357.600 C 2.950 359.250,2.607 361.950,2.402 363.600 C 1.257 372.795,0.511 378.252,0.175 379.900 L -0.091 381.200 199.998 381.200 L 400.088 381.200 399.832 379.700 C 399.442 377.411,399.233 375.762,398.781 371.400 C 398.552 369.200,398.198 365.870,397.993 364.000 C 397.788 362.130,397.428 358.800,397.192 356.600 C 396.956 354.400,396.598 351.160,396.397 349.400 C 396.195 347.640,395.835 344.310,395.598 342.000 C 395.360 339.690,394.998 336.270,394.793 334.400 C 394.588 332.530,394.227 329.200,393.990 327.000 C 393.753 324.800,393.393 321.470,393.190 319.600 C 392.987 317.730,392.636 314.445,392.411 312.300 C 392.185 310.155,391.818 306.735,391.596 304.700 C 390.810 297.516,389.631 286.528,389.008 280.600 C 388.070 271.664,387.606 267.358,387.198 263.800 C 386.996 262.040,386.639 258.710,386.405 256.400 C 386.008 252.483,385.722 249.789,384.790 241.200 C 384.587 239.330,384.227 236.000,383.990 233.800 C 383.394 228.274,382.869 223.431,382.417 219.300 C 382.207 217.375,381.840 213.910,381.602 211.600 C 381.365 209.290,381.004 205.960,380.800 204.200 C 380.596 202.440,380.236 199.110,380.000 196.800 C 379.764 194.490,379.404 191.160,379.200 189.400 C 378.996 187.640,378.635 184.310,378.398 182.000 C 378.160 179.690,377.798 176.270,377.593 174.400 C 377.388 172.530,377.039 169.290,376.817 167.200 C 376.595 165.110,376.237 161.780,376.021 159.800 C 375.805 157.820,375.422 154.220,375.170 151.800 C 374.918 149.380,374.647 147.176,374.569 146.903 C 374.457 146.511,363.090 146.384,320.642 146.303 L 266.857 146.200 266.228 148.146 C 265.883 149.216,265.600 150.440,265.600 150.866 C 265.600 151.291,265.335 152.152,265.011 152.778 C 264.688 153.404,264.250 154.610,264.039 155.458 C 263.827 156.306,263.345 157.900,262.966 159.000 C 262.588 160.100,262.061 161.630,261.796 162.400 C 261.531 163.170,261.124 164.385,260.891 165.100 L 260.469 166.400 308.610 166.400 L 356.751 166.400 356.957 168.100 C 357.070 169.035,357.273 170.880,357.407 172.200 C 357.541 173.520,357.820 176.130,358.027 178.000 C 358.235 179.870,358.583 183.110,358.800 185.200 C 359.017 187.290,359.371 190.620,359.586 192.600 C 359.800 194.580,360.520 201.330,361.184 207.600 C 361.848 213.870,362.752 222.330,363.193 226.400 C 363.634 230.470,364.179 235.600,364.404 237.800 C 364.630 240.000,364.986 243.330,365.196 245.200 C 365.407 247.070,365.768 250.400,366.000 252.600 C 366.232 254.800,366.590 258.130,366.796 260.000 C 367.003 261.870,367.350 265.020,367.568 267.000 C 367.787 268.980,368.160 272.490,368.398 274.800 C 368.635 277.110,368.995 280.440,369.197 282.200 C 369.541 285.202,369.726 286.915,370.797 297.000 C 371.030 299.200,371.392 302.530,371.600 304.400 C 371.808 306.270,372.164 309.555,372.389 311.700 C 372.615 313.845,372.985 317.355,373.211 319.500 C 373.436 321.645,373.792 324.930,374.000 326.800 C 374.208 328.670,374.564 331.955,374.789 334.100 C 375.015 336.245,375.384 339.665,375.608 341.700 C 377.245 356.534,377.626 360.557,377.438 361.044 C 377.177 361.726,23.430 361.896,23.009 361.215 C 22.878 361.003,22.965 359.338,23.201 357.515 C 23.437 355.692,23.803 352.805,24.015 351.100 C 24.815 344.654,25.237 341.307,25.613 338.400 C 25.827 336.750,26.193 333.870,26.425 332.000 C 26.658 330.130,27.007 327.340,27.200 325.800 C 27.393 324.260,27.753 321.380,28.000 319.400 C 28.247 317.420,28.623 314.450,28.837 312.800 C 29.050 311.150,29.394 308.450,29.600 306.800 C 29.806 305.150,30.150 302.450,30.363 300.800 C 30.727 297.992,31.168 294.477,31.996 287.800 C 32.187 286.260,32.536 283.515,32.772 281.700 C 33.184 278.521,33.564 275.510,34.385 268.900 C 34.597 267.195,36.313 253.560,38.199 238.600 C 40.085 223.640,41.802 210.005,42.014 208.300 C 42.226 206.595,42.580 203.760,42.800 202.000 C 43.020 200.240,43.380 197.360,43.600 195.600 C 43.820 193.840,44.193 190.915,44.428 189.100 C 44.664 187.285,45.011 184.540,45.200 183.000 C 45.389 181.460,45.743 178.670,45.987 176.800 C 46.231 174.930,46.583 171.990,46.769 170.267 C 46.954 168.544,47.273 166.967,47.476 166.764 C 47.700 166.540,66.746 166.434,95.689 166.497 C 136.604 166.585,143.465 166.519,143.066 166.041 C 142.810 165.734,142.389 164.654,142.130 163.641 C 141.665 161.819,140.803 159.109,139.827 156.400 C 138.352 152.311,137.894 150.801,137.521 148.800 C 137.296 147.590,136.996 146.510,136.856 146.400 C 136.715 146.290,112.609 146.246,83.287 146.301 " stroke="none" fill="#556080" fill-rule="evenodd"></path><path id="path2" d="M190.800 19.219 C 190.030 19.404,187.690 19.755,185.600 19.998 C 183.510 20.242,180.990 20.687,180.000 20.988 C 179.010 21.288,177.480 21.652,176.600 21.797 C 164.120 23.855,148.857 34.295,140.924 46.200 C 139.233 48.738,135.156 56.993,134.207 59.800 C 129.419 73.967,127.316 91.552,128.776 105.214 C 129.046 107.736,129.351 110.790,129.454 112.000 C 129.636 114.138,130.806 121.161,131.586 124.800 C 132.792 130.421,135.854 142.777,136.444 144.400 C 136.644 144.950,137.064 146.660,137.376 148.200 C 137.895 150.756,138.396 152.432,139.827 156.400 C 140.803 159.109,141.665 161.819,142.130 163.641 C 142.389 164.654,142.794 165.734,143.030 166.041 C 143.267 166.349,144.239 168.670,145.190 171.200 C 147.335 176.903,149.389 181.965,150.643 184.639 C 151.170 185.760,151.600 186.780,151.600 186.906 C 151.600 187.295,156.271 197.088,159.467 203.400 C 163.000 210.376,167.036 217.591,170.231 222.639 C 171.471 224.597,173.141 227.252,173.943 228.538 C 183.056 243.158,198.289 262.392,201.546 263.393 C 203.170 263.891,210.274 255.905,220.043 242.600 C 224.878 236.015,231.200 226.480,231.200 225.772 C 231.200 225.681,231.797 224.825,232.526 223.869 C 233.667 222.375,236.788 217.112,240.548 210.340 C 243.102 205.741,248.442 194.891,250.756 189.600 C 252.150 186.410,253.458 183.476,253.662 183.079 C 253.866 182.683,255.020 179.803,256.226 176.679 C 257.432 173.556,258.594 170.687,258.809 170.305 C 259.024 169.923,259.200 169.381,259.200 169.100 C 259.200 168.818,259.587 167.871,260.060 166.994 C 260.533 166.117,261.057 164.860,261.225 164.200 C 261.393 163.540,261.747 162.370,262.013 161.600 C 262.278 160.830,262.803 159.300,263.178 158.200 C 263.554 157.100,264.173 155.300,264.555 154.200 C 265.260 152.165,265.834 149.990,266.979 145.025 C 267.331 143.499,267.865 141.519,268.165 140.625 C 268.675 139.107,271.697 126.461,272.187 123.800 C 273.085 118.909,273.652 115.567,273.815 114.200 C 273.920 113.320,274.223 111.250,274.489 109.600 C 275.124 105.668,275.109 85.647,274.468 81.600 C 273.209 73.650,272.264 69.001,271.345 66.234 C 270.973 65.115,270.677 64.110,270.686 64.000 C 270.844 62.151,265.521 50.625,262.280 45.800 C 252.787 31.666,236.790 22.325,218.067 19.984 C 216.234 19.754,213.824 19.394,212.712 19.183 C 210.262 18.719,192.762 18.747,190.800 19.219 M209.200 54.213 C 212.582 54.946,216.103 56.205,218.379 57.493 C 219.381 58.060,220.568 58.721,221.018 58.962 C 224.390 60.768,232.800 69.333,232.800 70.961 C 232.800 71.073,233.321 72.048,233.958 73.128 C 240.183 83.686,238.736 100.998,230.774 111.217 C 226.317 116.937,217.183 123.600,213.799 123.600 C 213.464 123.600,212.877 123.762,212.495 123.961 C 210.465 125.016,201.103 126.336,200.278 125.683 C 200.015 125.475,198.476 125.271,196.859 125.230 C 195.241 125.189,193.621 125.003,193.259 124.817 C 192.896 124.630,191.790 124.257,190.800 123.987 C 179.961 121.029,168.594 108.883,166.662 98.194 C 165.778 93.303,165.605 91.894,165.610 89.600 C 165.636 77.604,173.170 64.003,182.582 58.962 C 183.032 58.721,184.230 58.054,185.245 57.480 C 187.244 56.349,192.149 54.588,194.400 54.194 C 200.257 53.167,204.408 53.173,209.200 54.213 " stroke="none" fill="#dd342d" fill-rule="evenodd"></path><path id="path3" d="M197.678 18.698 C 200.031 18.769,203.991 18.769,206.478 18.699 C 208.965 18.629,207.040 18.571,202.200 18.570 C 197.360 18.570,195.325 18.628,197.678 18.698 M187.400 19.200 L 185.800 19.486 187.800 19.496 C 188.900 19.501,190.340 19.368,191.000 19.200 C 192.655 18.779,189.751 18.779,187.400 19.200 M213.000 19.223 C 213.880 19.405,215.320 19.542,216.200 19.527 L 217.800 19.500 216.000 19.180 C 215.010 19.003,213.570 18.867,212.800 18.876 L 211.400 18.892 213.000 19.223 M178.600 20.794 C 161.708 24.750,149.478 32.912,140.515 46.212 C 138.653 48.976,135.008 55.941,135.281 56.214 C 135.381 56.315,136.332 54.643,137.392 52.498 C 145.683 35.742,160.325 25.009,180.600 20.827 C 185.267 19.864,185.895 19.683,184.600 19.676 C 183.940 19.673,181.240 20.176,178.600 20.794 M219.400 20.023 C 226.895 21.627,228.164 21.952,232.200 23.300 C 235.396 24.368,238.386 25.613,242.196 27.464 L 243.400 28.048 242.400 27.233 C 241.850 26.785,241.254 26.414,241.075 26.409 C 240.896 26.404,239.636 25.875,238.275 25.233 C 233.267 22.872,221.540 19.518,218.724 19.640 C 218.177 19.664,218.454 19.820,219.400 20.023 M243.600 28.167 C 243.600 28.259,244.275 28.743,245.100 29.242 C 253.644 34.411,261.316 42.852,266.218 52.475 C 267.079 54.166,267.851 55.482,267.933 55.401 C 268.394 54.939,263.041 45.715,260.350 42.335 C 255.784 36.599,243.600 26.294,243.600 28.167 M194.400 54.400 C 192.996 54.850,194.463 54.865,196.600 54.423 L 198.200 54.092 196.800 54.086 C 196.030 54.083,194.950 54.224,194.400 54.400 M206.600 54.400 C 208.361 54.848,210.599 54.848,209.200 54.400 C 208.650 54.224,207.570 54.083,206.800 54.087 L 205.400 54.095 206.600 54.400 M189.000 56.000 L 188.200 56.344 189.000 56.366 C 189.440 56.378,190.070 56.213,190.400 56.000 C 191.195 55.486,190.196 55.486,189.000 56.000 M213.400 56.000 C 213.536 56.220,214.042 56.387,214.524 56.372 C 215.369 56.345,215.371 56.331,214.600 56.000 C 213.499 55.527,213.108 55.527,213.400 56.000 M268.000 56.128 C 268.000 56.224,268.279 56.970,268.620 57.785 C 276.139 75.781,277.173 102.103,271.361 127.529 C 270.791 130.020,270.414 132.148,270.524 132.257 C 270.633 132.366,270.940 131.498,271.206 130.328 C 271.472 129.157,271.861 127.480,272.070 126.600 C 274.591 115.992,275.789 103.407,275.440 91.200 C 275.210 83.195,275.046 81.466,273.960 75.600 C 272.700 68.802,272.873 69.460,270.001 60.488 C 268.935 57.158,268.000 55.121,268.000 56.128 M134.295 58.283 C 133.323 60.720,131.925 65.659,132.145 65.879 C 132.256 65.990,132.558 65.298,132.814 64.340 C 133.513 61.736,134.385 59.112,134.887 58.101 C 135.133 57.606,135.237 57.103,135.117 56.984 C 134.998 56.865,134.628 57.449,134.295 58.283 M184.300 58.277 C 183.256 58.858,182.463 59.397,182.540 59.473 C 182.700 59.634,186.400 57.614,186.400 57.366 C 186.400 57.115,186.343 57.140,184.300 58.277 M217.400 57.506 C 217.620 57.727,218.613 58.333,219.607 58.854 C 224.049 61.179,230.125 67.175,232.260 71.340 C 232.806 72.407,233.339 73.194,233.443 73.090 C 234.176 72.357,228.326 65.016,224.509 61.877 C 222.099 59.896,216.118 56.218,217.400 57.506 M181.169 60.113 C 179.440 61.449,177.916 62.849,178.050 62.978 C 178.132 63.058,179.100 62.335,180.200 61.370 C 182.044 59.754,182.646 58.972,181.169 60.113 M174.573 66.300 C 172.224 69.047,170.031 72.400,170.584 72.400 C 170.694 72.400,171.137 71.725,171.569 70.900 C 172.000 70.075,173.535 68.005,174.978 66.300 C 176.422 64.595,177.518 63.200,177.413 63.200 C 177.309 63.200,176.031 64.595,174.573 66.300 M131.473 66.953 C 131.323 67.345,131.211 67.966,131.225 68.333 C 131.242 68.775,131.381 68.674,131.637 68.034 C 131.849 67.503,131.961 66.882,131.885 66.654 C 131.809 66.427,131.624 66.561,131.473 66.953 M130.673 69.753 C 130.523 70.145,130.416 70.946,130.436 71.533 C 130.470 72.528,130.498 72.509,130.857 71.263 C 131.273 69.819,131.123 68.582,130.673 69.753 M129.889 73.600 C 129.736 74.150,129.628 75.230,129.649 76.000 C 129.686 77.346,129.701 77.331,130.047 75.600 C 130.451 73.577,130.328 72.023,129.889 73.600 M234.330 75.182 C 234.698 76.051,235.056 76.604,235.124 76.409 C 235.250 76.049,234.113 73.600,233.819 73.600 C 233.731 73.600,233.961 74.312,234.330 75.182 M129.076 78.410 C 128.930 78.955,128.830 80.210,128.854 81.200 C 128.896 82.951,128.907 82.934,129.248 80.600 C 129.620 78.052,129.518 76.757,129.076 78.410 M167.400 79.200 C 167.250 79.673,167.217 80.150,167.327 80.260 C 167.437 80.370,167.650 80.073,167.800 79.600 C 167.950 79.127,167.983 78.650,167.873 78.540 C 167.763 78.430,167.550 78.727,167.400 79.200 M236.034 80.000 C 236.046 80.330,236.211 80.960,236.400 81.400 L 236.744 82.200 236.766 81.400 C 236.778 80.960,236.613 80.330,236.400 80.000 C 236.055 79.467,236.015 79.467,236.034 80.000 M166.649 81.815 C 166.512 82.173,166.416 82.856,166.436 83.333 C 166.462 83.947,166.585 83.808,166.859 82.856 C 167.257 81.472,167.094 80.658,166.649 81.815 M237.123 87.424 C 237.289 92.102,237.001 95.437,236.138 98.800 C 235.997 99.350,236.019 99.675,236.186 99.522 C 237.291 98.510,238.040 86.859,237.222 83.400 C 237.066 82.740,237.021 84.551,237.123 87.424 M128.259 85.700 C 127.850 89.107,127.957 102.672,128.427 107.000 C 129.186 113.986,129.256 114.477,129.463 114.271 C 129.574 114.159,129.359 111.128,128.984 107.534 C 128.466 102.566,128.353 98.914,128.514 92.300 C 128.732 83.289,128.688 82.132,128.259 85.700 M165.873 88.012 C 165.742 89.119,165.796 90.424,165.992 90.912 C 166.253 91.560,166.356 91.017,166.375 88.900 C 166.404 85.515,166.210 85.170,165.873 88.012 M166.406 95.833 C 166.409 96.475,166.596 97.270,166.821 97.600 C 167.114 98.030,167.154 97.746,166.962 96.600 C 166.630 94.616,166.398 94.296,166.406 95.833 M168.012 101.600 C 168.012 101.930,168.187 102.470,168.400 102.800 C 168.745 103.333,168.788 103.333,168.788 102.800 C 168.788 102.470,168.613 101.930,168.400 101.600 C 168.055 101.067,168.012 101.067,168.012 101.600 M170.986 107.900 C 171.335 108.615,171.706 109.200,171.810 109.200 C 172.208 109.200,171.952 108.563,171.167 107.600 L 170.352 106.600 170.986 107.900 M231.079 109.700 C 230.280 110.855,228.718 112.773,227.608 113.962 C 226.498 115.151,225.666 116.200,225.759 116.292 C 225.992 116.526,231.513 110.052,232.234 108.700 C 233.147 106.987,232.673 107.398,231.079 109.700 M172.799 110.700 C 173.322 111.415,173.813 112.000,173.889 112.000 C 174.193 112.000,173.201 110.500,172.545 109.967 C 172.113 109.616,172.210 109.896,172.799 110.700 M174.746 113.000 C 175.129 113.789,176.831 115.464,178.821 117.008 C 179.382 117.444,179.202 117.190,178.421 116.445 C 177.639 115.700,176.406 114.440,175.679 113.645 C 174.952 112.850,174.533 112.560,174.746 113.000 M129.675 116.400 C 129.665 117.170,129.811 118.160,130.000 118.600 C 130.457 119.664,130.457 117.997,130.000 116.200 L 129.695 115.000 129.675 116.400 M223.600 117.622 C 222.830 118.282,221.688 119.101,221.063 119.441 C 220.437 119.781,220.028 120.161,220.153 120.286 C 220.373 120.506,224.610 117.430,225.036 116.742 C 225.391 116.167,225.060 116.370,223.600 117.622 M180.893 118.624 C 181.555 119.411,186.777 122.406,187.468 122.395 C 187.651 122.392,186.450 121.648,184.800 120.743 C 183.150 119.837,181.440 118.804,181.000 118.448 C 180.221 117.817,180.218 117.821,180.893 118.624 M130.475 120.800 C 130.465 121.570,130.611 122.560,130.800 123.000 C 131.257 124.064,131.257 122.397,130.800 120.600 L 130.495 119.400 130.475 120.800 M216.600 121.819 C 215.060 122.561,213.530 123.179,213.200 123.191 C 212.870 123.203,212.330 123.395,212.000 123.618 C 211.561 123.915,211.722 123.953,212.600 123.760 C 214.027 123.445,219.600 120.950,219.600 120.626 C 219.600 120.346,219.906 120.225,216.600 121.819 M189.200 123.141 C 189.530 123.334,190.340 123.609,191.000 123.752 C 191.768 123.918,191.984 123.884,191.600 123.659 C 191.270 123.466,190.460 123.191,189.800 123.048 C 189.032 122.882,188.816 122.916,189.200 123.141 M193.000 124.400 C 193.440 124.589,194.070 124.744,194.400 124.744 C 194.778 124.744,194.704 124.617,194.200 124.400 C 193.760 124.211,193.130 124.056,192.800 124.056 C 192.422 124.056,192.496 124.183,193.000 124.400 M209.200 124.418 C 208.762 124.715,208.924 124.752,209.800 124.556 C 211.271 124.227,211.590 123.998,210.567 124.006 C 210.145 124.009,209.530 124.195,209.200 124.418 M131.199 124.900 C 131.197 125.785,132.507 130.826,132.691 130.642 C 132.893 130.440,131.605 124.400,131.360 124.400 C 131.272 124.400,131.200 124.625,131.199 124.900 M198.883 125.278 C 200.799 125.469,203.229 125.478,204.283 125.300 C 205.747 125.052,204.924 124.970,200.800 124.954 C 195.400 124.933,195.400 124.933,198.883 125.278 M132.856 132.000 C 132.856 132.550,133.011 133.360,133.200 133.800 C 133.513 134.529,133.544 134.512,133.544 133.600 C 133.544 133.050,133.389 132.240,133.200 131.800 C 132.887 131.071,132.856 131.088,132.856 132.000 M269.262 136.515 C 268.748 138.647,268.227 140.798,268.105 141.296 C 267.982 141.793,268.002 142.091,268.149 141.958 C 268.540 141.605,270.442 133.914,270.309 133.224 C 270.247 132.902,269.776 134.383,269.262 136.515 M133.634 135.400 C 133.672 136.766,134.338 138.042,134.366 136.800 C 134.378 136.250,134.213 135.530,134.000 135.200 C 133.680 134.705,133.616 134.740,133.634 135.400 M134.456 138.600 C 134.456 139.040,134.611 139.760,134.800 140.200 L 135.144 141.000 135.144 140.200 C 135.144 139.760,134.989 139.040,134.800 138.600 L 134.456 137.800 134.456 138.600 M135.227 141.427 C 135.180 142.175,136.446 146.088,136.664 145.869 C 136.779 145.754,136.654 144.971,136.385 144.130 C 135.679 141.920,135.258 140.938,135.227 141.427 M267.488 142.933 C 267.010 144.149,267.124 145.173,267.639 144.287 C 267.867 143.896,267.991 143.266,267.915 142.887 C 267.788 142.260,267.751 142.264,267.488 142.933 M143.219 167.400 C 143.483 168.060,143.833 168.960,143.996 169.400 C 144.159 169.840,144.480 170.650,144.708 171.200 C 144.937 171.750,145.711 173.730,146.428 175.600 C 150.299 185.688,159.029 204.285,163.650 212.286 C 164.722 214.143,165.600 215.725,165.600 215.801 C 165.600 216.334,178.802 237.085,180.105 238.600 C 180.294 238.820,182.076 241.250,184.065 244.000 C 187.726 249.063,194.168 257.022,198.137 261.388 L 200.309 263.776 196.054 266.205 C 185.707 272.111,183.368 274.782,184.939 278.897 C 186.830 283.846,191.156 284.797,196.250 281.381 C 197.713 280.400,200.505 278.684,202.454 277.569 C 209.992 273.255,211.204 267.305,205.179 264.189 C 203.716 263.433,203.721 263.333,205.309 261.552 C 212.227 253.793,216.922 247.808,225.040 236.400 C 227.079 233.535,234.412 221.879,234.267 221.734 C 234.184 221.651,232.982 223.342,231.596 225.492 C 225.214 235.388,223.630 237.735,220.051 242.600 C 214.496 250.151,208.649 257.373,205.362 260.741 C 201.585 264.612,201.621 264.620,196.437 258.779 C 187.260 248.439,180.489 239.060,169.306 221.200 C 164.862 214.103,151.600 188.511,151.600 187.032 C 151.600 186.918,151.170 185.873,150.644 184.712 C 149.349 181.853,147.604 177.558,145.396 171.800 C 144.384 169.160,143.372 166.820,143.147 166.600 C 142.921 166.379,142.954 166.736,143.219 167.400 M259.738 167.900 C 259.381 168.725,258.953 169.760,258.786 170.200 C 258.620 170.640,257.305 173.965,255.864 177.589 C 254.423 181.213,253.319 184.252,253.411 184.344 C 253.503 184.436,253.762 184.025,253.988 183.432 C 254.214 182.838,254.849 181.368,255.399 180.165 C 255.950 178.961,256.400 177.799,256.400 177.583 C 256.400 177.366,256.559 176.877,256.753 176.495 C 257.236 175.545,257.765 174.229,258.800 171.400 C 259.558 169.328,260.147 167.874,260.705 166.700 C 260.783 166.535,260.744 166.400,260.617 166.400 C 260.491 166.400,260.095 167.075,259.738 167.900 M252.379 186.087 C 249.912 192.209,241.722 208.594,237.826 215.200 C 235.382 219.345,234.366 221.200,234.541 221.200 C 234.753 221.200,236.730 218.086,238.097 215.600 C 238.641 214.610,239.497 213.080,239.998 212.200 C 242.147 208.425,247.718 197.382,249.987 192.400 C 251.339 189.430,252.645 186.595,252.890 186.101 C 253.134 185.606,253.238 185.105,253.121 184.988 C 253.004 184.870,252.670 185.365,252.379 186.087 M304.200 192.394 C 297.435 193.493,295.400 195.160,295.400 199.600 C 295.400 205.092,298.615 206.778,306.400 205.370 C 308.542 204.983,310.709 204.848,312.256 205.005 C 320.231 205.815,324.487 197.618,318.312 193.339 C 316.555 192.122,308.994 191.615,304.200 192.394 M333.471 207.873 C 329.987 208.447,328.417 212.124,329.346 217.535 C 329.811 220.241,329.871 221.731,329.586 223.474 C 329.004 227.023,329.119 228.747,330.047 230.398 C 332.096 234.044,337.448 234.641,340.240 231.535 C 343.264 228.171,343.678 217.100,340.992 211.439 C 339.694 208.705,336.786 207.326,333.471 207.873 M315.121 244.803 C 313.427 245.676,310.356 246.930,308.295 247.590 C 296.950 251.224,300.776 263.376,312.189 259.958 C 322.109 256.987,326.544 253.765,326.551 249.526 C 326.561 243.708,321.391 241.573,315.121 244.803 M272.800 250.581 C 265.794 251.102,264.713 251.362,263.327 252.858 C 260.281 256.144,261.336 261.220,265.441 263.035 L 267.707 264.037 275.154 263.574 C 285.499 262.929,287.600 261.775,287.600 256.734 C 287.600 250.964,284.571 249.705,272.800 250.581 M237.600 253.229 C 236.390 253.407,234.230 253.759,232.800 254.011 C 231.370 254.262,229.390 254.603,228.400 254.767 C 223.210 255.628,220.594 258.968,221.830 263.156 C 222.936 266.900,225.663 268.331,230.292 267.597 C 231.781 267.361,234.170 266.982,235.600 266.754 C 241.716 265.781,244.076 265.109,245.372 263.971 C 249.856 260.034,246.648 252.482,240.650 252.852 C 240.183 252.881,238.810 253.051,237.600 253.229 M88.055 265.455 C 81.063 266.971,77.422 270.043,77.678 274.210 C 78.012 279.632,82.118 281.626,87.977 279.209 C 90.150 278.313,91.892 277.933,95.014 277.671 C 101.045 277.166,103.586 274.903,103.088 270.482 C 102.531 265.541,96.681 263.585,88.055 265.455 M166.363 288.703 C 163.283 290.542,156.280 295.496,154.873 296.832 C 149.882 301.569,154.656 309.947,161.069 307.705 C 162.347 307.258,172.396 300.444,174.136 298.844 C 180.199 293.270,173.454 284.470,166.363 288.703 M66.219 288.969 C 63.067 289.951,61.627 293.051,60.760 300.722 C 59.715 309.965,61.927 314.800,67.200 314.800 C 71.584 314.800,73.230 312.342,73.642 305.181 C 73.819 302.109,74.151 298.922,74.380 298.098 C 76.033 292.145,71.674 287.269,66.219 288.969 M133.800 308.598 C 131.511 309.329,123.504 312.632,121.231 313.784 C 115.621 316.627,115.343 322.909,120.695 325.900 C 122.528 326.925,124.596 326.565,129.432 324.379 C 130.330 323.974,131.995 323.275,133.132 322.827 C 137.579 321.074,139.835 319.688,140.926 318.040 C 143.582 314.026,141.209 309.292,136.000 308.212 C 135.670 308.144,134.680 308.318,133.800 308.598 M80.548 321.589 C 76.487 324.510,76.959 330.466,81.418 332.582 C 84.777 334.176,93.105 334.730,98.737 333.733 C 102.164 333.127,104.658 328.639,103.399 325.343 C 102.061 321.838,100.806 321.285,93.641 321.040 C 90.209 320.923,86.230 320.731,84.800 320.613 C 82.386 320.416,82.082 320.485,80.548 321.589 " stroke="none" fill="#ebba17" fill-rule="evenodd"></path><path id="path4" d="M199.913 18.295 C 201.076 18.376,202.876 18.376,203.913 18.293 C 204.951 18.211,204.000 18.145,201.800 18.146 C 199.600 18.147,198.751 18.214,199.913 18.295 M190.307 18.690 C 191.026 18.779,192.106 18.777,192.707 18.686 C 193.308 18.595,192.720 18.522,191.400 18.524 C 190.080 18.526,189.588 18.601,190.307 18.690 M211.705 18.687 C 212.314 18.779,213.214 18.777,213.705 18.682 C 214.197 18.587,213.700 18.511,212.600 18.514 C 211.500 18.517,211.097 18.595,211.705 18.687 M182.600 19.603 C 182.085 19.826,182.513 19.867,183.800 19.718 C 184.900 19.591,185.875 19.423,185.967 19.344 C 186.314 19.045,183.364 19.272,182.600 19.603 M217.633 19.345 C 217.725 19.425,218.601 19.592,219.579 19.718 C 220.730 19.865,221.154 19.816,220.779 19.579 C 220.245 19.240,217.258 19.019,217.633 19.345 M178.990 20.416 C 178.821 20.689,179.123 20.738,179.866 20.560 C 181.399 20.192,181.544 20.000,180.290 20.000 C 179.717 20.000,179.132 20.187,178.990 20.416 M222.433 20.144 C 222.525 20.223,223.140 20.408,223.800 20.556 C 224.676 20.752,224.838 20.715,224.400 20.418 C 223.860 20.053,222.032 19.798,222.433 20.144 M175.600 21.218 C 175.162 21.515,175.324 21.552,176.200 21.356 C 177.671 21.027,177.990 20.798,176.967 20.806 C 176.545 20.809,175.930 20.995,175.600 21.218 M226.033 20.944 C 226.125 21.023,226.740 21.208,227.400 21.356 C 228.276 21.552,228.438 21.515,228.000 21.218 C 227.460 20.853,225.632 20.598,226.033 20.944 M245.600 28.924 C 245.600 29.017,246.365 29.598,247.300 30.215 C 248.235 30.832,248.789 31.080,248.531 30.768 C 248.034 30.167,245.600 28.636,245.600 28.924 M154.088 31.367 C 152.768 32.338,151.567 33.330,151.419 33.570 C 151.270 33.810,152.375 33.084,153.874 31.955 C 157.019 29.589,157.005 29.600,156.711 29.600 C 156.588 29.600,155.408 30.395,154.088 31.367 M250.800 32.670 C 251.789 33.512,253.679 35.185,255.000 36.389 C 257.316 38.501,257.337 38.511,255.600 36.670 C 254.610 35.621,252.720 33.948,251.400 32.952 C 249.570 31.570,249.427 31.504,250.800 32.670 M147.789 36.900 L 145.000 39.800 147.900 37.011 C 150.594 34.420,150.983 34.000,150.689 34.000 C 150.628 34.000,149.323 35.305,147.789 36.900 M262.618 45.500 C 264.356 48.192,265.200 49.364,265.200 49.087 C 265.200 48.705,262.350 44.400,262.097 44.400 C 261.993 44.400,262.228 44.895,262.618 45.500 M267.200 53.284 C 267.200 53.716,268.415 56.400,268.611 56.400 C 268.721 56.400,268.533 55.734,268.193 54.921 C 267.593 53.486,267.200 52.838,267.200 53.284 M198.200 54.170 C 195.530 54.580,195.684 54.600,201.511 54.600 C 204.872 54.600,207.032 54.481,206.311 54.335 C 203.688 53.806,200.940 53.750,198.200 54.170 M134.600 56.661 C 134.264 57.465,134.082 58.215,134.195 58.328 C 134.308 58.441,134.400 58.435,134.400 58.316 C 134.400 58.196,134.672 57.446,135.005 56.649 C 135.338 55.852,135.521 55.200,135.411 55.200 C 135.301 55.200,134.936 55.858,134.600 56.661 M223.200 61.563 C 223.200 61.803,223.338 62.000,223.507 62.000 C 223.676 62.000,224.801 62.853,226.007 63.895 C 227.213 64.937,227.948 65.471,227.641 65.082 C 226.671 63.857,223.200 61.106,223.200 61.563 M176.400 64.600 C 175.654 65.370,175.153 66.000,175.287 66.000 C 175.421 66.000,176.180 65.370,176.973 64.600 C 177.766 63.830,178.267 63.200,178.086 63.200 C 177.905 63.200,177.146 63.830,176.400 64.600 M229.677 68.036 C 230.625 69.266,231.628 70.616,231.906 71.036 C 232.196 71.475,232.170 71.288,231.845 70.596 C 231.533 69.933,230.531 68.583,229.617 67.596 L 227.955 65.800 229.677 68.036 M130.846 68.067 C 130.821 68.434,130.696 69.064,130.570 69.467 C 130.352 70.162,130.363 70.163,130.797 69.487 C 131.048 69.096,131.173 68.466,131.073 68.087 C 130.911 67.468,130.888 67.466,130.846 68.067 M130.054 71.200 C 130.019 71.750,129.896 72.650,129.783 73.200 L 129.577 74.200 130.007 73.215 C 130.243 72.674,130.365 71.774,130.278 71.215 L 130.120 70.200 130.054 71.200 M232.415 72.200 C 232.417 72.420,232.786 73.050,233.236 73.600 C 233.779 74.264,233.915 74.331,233.640 73.800 C 232.966 72.495,232.412 71.772,232.415 72.200 M169.509 74.500 C 169.189 74.995,168.813 75.940,168.674 76.600 C 168.433 77.744,168.442 77.753,168.854 76.800 C 169.092 76.250,169.547 75.305,169.866 74.700 C 170.564 73.375,170.324 73.241,169.509 74.500 M129.254 76.000 C 129.219 76.550,129.096 77.450,128.983 78.000 L 128.777 79.000 129.207 78.015 C 129.443 77.474,129.565 76.574,129.478 76.015 L 129.320 75.000 129.254 76.000 M274.658 80.000 C 274.975 81.725,275.202 82.051,275.194 80.767 C 275.191 80.235,275.011 79.530,274.794 79.200 C 274.518 78.778,274.477 79.015,274.658 80.000 M128.235 83.035 C 128.083 84.716,128.041 86.174,128.142 86.276 C 128.243 86.377,128.455 85.088,128.612 83.412 C 128.769 81.736,128.811 80.277,128.705 80.171 C 128.599 80.066,128.388 81.354,128.235 83.035 M236.440 83.233 C 236.462 83.985,236.630 85.050,236.813 85.600 C 237.029 86.246,237.066 85.820,236.919 84.400 C 236.659 81.883,236.381 81.207,236.440 83.233 M166.528 86.400 C 166.528 87.830,166.601 88.415,166.689 87.700 C 166.778 86.985,166.778 85.815,166.689 85.100 C 166.601 84.385,166.528 84.970,166.528 86.400 M275.400 95.800 C 275.400 100.514,275.522 104.062,275.672 103.685 C 275.821 103.308,275.944 99.760,275.944 95.800 C 275.944 91.840,275.821 88.292,275.672 87.915 C 275.522 87.538,275.400 91.086,275.400 95.800 M166.336 91.100 C 166.250 91.485,166.293 92.520,166.433 93.400 C 166.670 94.894,166.690 94.848,166.743 92.700 C 166.800 90.411,166.636 89.766,166.336 91.100 M236.656 94.084 C 236.521 94.588,236.428 95.450,236.449 96.000 C 236.472 96.589,236.631 96.271,236.836 95.225 C 237.203 93.352,237.073 92.527,236.656 94.084 M168.832 102.720 C 168.796 103.298,169.907 105.600,170.221 105.600 C 170.331 105.600,170.171 105.105,169.865 104.500 C 169.560 103.895,169.209 103.130,169.086 102.800 C 168.936 102.397,168.853 102.371,168.832 102.720 M128.093 106.000 C 128.093 106.770,128.175 107.085,128.276 106.700 C 128.376 106.315,128.376 105.685,128.276 105.300 C 128.175 104.915,128.093 105.230,128.093 106.000 M232.462 106.862 C 231.977 107.770,231.642 108.576,231.718 108.652 C 231.795 108.728,232.254 108.047,232.738 107.138 C 233.223 106.230,233.558 105.424,233.482 105.348 C 233.405 105.272,232.946 105.953,232.462 106.862 M128.501 109.000 C 128.505 109.880,128.587 110.193,128.683 109.695 C 128.779 109.198,128.775 108.478,128.675 108.095 C 128.575 107.713,128.496 108.120,128.501 109.000 M274.867 109.650 C 274.830 110.228,274.705 111.308,274.589 112.050 C 274.396 113.286,274.415 113.317,274.808 112.414 C 275.045 111.871,275.170 110.791,275.086 110.014 C 274.977 108.992,274.916 108.891,274.867 109.650 M229.355 111.481 C 228.507 112.516,228.022 113.234,228.277 113.076 C 228.821 112.740,231.355 109.600,231.082 109.600 C 230.980 109.600,230.203 110.447,229.355 111.481 M129.072 114.600 C 129.199 115.700,129.369 116.675,129.451 116.767 C 129.732 117.082,129.520 114.599,129.180 113.600 C 128.951 112.926,128.916 113.251,129.072 114.600 M178.368 116.115 C 178.673 116.508,179.660 117.389,180.562 118.073 C 182.173 119.296,182.180 119.297,180.986 118.158 C 179.028 116.290,177.701 115.255,178.368 116.115 M273.829 116.629 C 273.681 117.215,273.638 117.772,273.732 117.866 C 273.827 117.960,274.024 117.558,274.171 116.971 C 274.319 116.385,274.362 115.828,274.268 115.734 C 274.173 115.640,273.976 116.042,273.829 116.629 M223.200 117.634 L 221.400 119.265 223.400 117.747 C 224.500 116.911,225.475 116.177,225.567 116.114 C 225.658 116.051,225.568 116.000,225.367 116.001 C 225.165 116.002,224.190 116.736,223.200 117.634 M219.600 120.036 C 218.936 120.579,218.869 120.715,219.400 120.440 C 220.705 119.766,221.428 119.212,221.000 119.215 C 220.780 119.217,220.150 119.586,219.600 120.036 M273.029 121.429 C 272.881 122.015,272.838 122.572,272.932 122.666 C 273.027 122.760,273.224 122.358,273.371 121.771 C 273.519 121.185,273.562 120.628,273.468 120.534 C 273.373 120.440,273.176 120.842,273.029 121.429 M130.662 123.800 C 130.796 124.680,130.972 125.475,131.053 125.567 C 131.356 125.910,131.129 123.768,130.781 123.000 C 130.529 122.442,130.493 122.685,130.662 123.800 M194.200 124.400 C 195.396 124.914,196.395 124.914,195.600 124.400 C 195.270 124.187,194.640 124.022,194.200 124.034 L 193.400 124.056 194.200 124.400 M201.105 125.083 C 201.602 125.179,202.322 125.175,202.705 125.075 C 203.087 124.975,202.680 124.896,201.800 124.901 C 200.920 124.905,200.607 124.987,201.105 125.083 M271.429 129.029 C 271.281 129.615,271.238 130.172,271.332 130.266 C 271.427 130.360,271.624 129.958,271.771 129.371 C 271.919 128.785,271.962 128.228,271.868 128.134 C 271.773 128.040,271.576 128.442,271.429 129.029 M270.600 132.400 C 270.448 133.091,270.407 133.741,270.509 133.842 C 270.611 133.944,270.809 133.453,270.950 132.750 C 271.283 131.083,270.960 130.760,270.600 132.400 M134.006 138.433 C 134.009 138.965,134.189 139.670,134.406 140.000 C 134.682 140.422,134.723 140.185,134.542 139.200 C 134.225 137.475,133.998 137.149,134.006 138.433 M134.806 141.433 C 134.809 141.855,134.995 142.470,135.218 142.800 C 135.515 143.238,135.552 143.076,135.356 142.200 C 135.027 140.729,134.798 140.410,134.806 141.433 M135.707 144.800 L 135.800 145.800 82.819 145.901 C 47.414 145.969,29.701 146.139,29.428 146.412 C 29.204 146.636,28.877 148.211,28.702 149.910 C 28.343 153.399,27.725 158.539,27.200 162.400 C 27.006 163.830,26.646 166.620,26.401 168.600 C 25.662 174.578,25.177 178.443,24.770 181.600 C 24.557 183.250,24.212 185.950,24.004 187.600 C 23.140 194.432,22.112 202.447,21.619 206.200 C 21.416 207.740,21.057 210.530,20.821 212.400 C 20.585 214.270,20.219 217.150,20.007 218.800 C 19.540 222.448,18.929 227.341,18.422 231.500 C 18.026 234.748,17.816 236.376,17.199 241.000 C 16.511 246.154,16.013 250.142,15.002 258.600 C 14.450 263.220,13.819 268.395,13.599 270.100 C 13.380 271.805,13.027 274.595,12.817 276.300 C 12.606 278.005,12.325 280.210,12.192 281.200 C 12.060 282.190,11.772 284.530,11.554 286.400 C 11.126 290.056,10.588 294.406,9.970 299.200 C 9.757 300.850,9.412 303.550,9.204 305.200 C 8.588 310.073,7.982 314.803,7.578 317.900 C 6.629 325.181,6.142 329.016,5.203 336.600 C 5.013 338.140,4.664 340.885,4.428 342.700 C 3.009 353.633,2.572 357.056,2.044 361.400 C 1.803 363.380,1.424 366.350,1.203 368.000 C 0.616 372.371,0.015 377.683,0.007 378.567 C -0.009 380.318,0.594 378.562,0.861 376.080 C 1.019 374.606,1.347 371.870,1.588 370.000 C 1.830 368.130,2.196 365.250,2.402 363.600 C 2.607 361.950,2.950 359.250,3.163 357.600 C 3.377 355.950,3.753 352.980,4.000 351.000 C 4.247 349.020,4.607 346.140,4.800 344.600 C 5.217 341.278,5.913 335.695,6.396 331.800 C 6.587 330.260,6.936 327.515,7.172 325.700 C 7.580 322.555,7.923 319.832,8.786 312.900 C 8.998 311.195,10.356 300.440,11.804 289.000 C 13.252 277.560,14.608 266.760,14.818 265.000 C 15.029 263.240,15.380 260.450,15.600 258.800 C 15.820 257.150,16.191 254.270,16.424 252.400 C 16.658 250.530,17.007 247.740,17.200 246.200 C 17.393 244.660,17.753 241.780,17.999 239.800 C 18.887 232.649,19.252 229.750,19.623 226.900 C 20.505 220.119,20.775 218.007,21.200 214.600 C 21.447 212.620,21.807 209.740,22.000 208.200 C 22.193 206.660,22.542 203.870,22.775 202.000 C 23.007 200.130,23.373 197.250,23.587 195.600 C 23.969 192.650,24.488 188.523,25.171 183.000 C 27.568 163.614,29.660 147.301,29.800 146.900 C 29.939 146.503,40.977 146.400,83.187 146.400 C 125.506 146.400,136.394 146.298,136.372 145.900 C 136.356 145.625,136.179 145.040,135.978 144.600 C 135.650 143.880,135.622 143.900,135.707 144.800 M267.246 145.500 L 267.200 146.400 320.813 146.400 C 363.360 146.400,374.455 146.503,374.568 146.900 C 374.647 147.175,374.918 149.380,375.170 151.800 C 375.422 154.220,375.805 157.820,376.021 159.800 C 376.237 161.780,376.595 165.110,376.817 167.200 C 377.039 169.290,377.388 172.530,377.593 174.400 C 377.798 176.270,378.160 179.690,378.398 182.000 C 378.635 184.310,378.996 187.640,379.200 189.400 C 379.404 191.160,379.764 194.490,380.000 196.800 C 380.236 199.110,380.596 202.440,380.800 204.200 C 381.004 205.960,381.365 209.290,381.602 211.600 C 381.840 213.910,382.202 217.330,382.407 219.200 C 382.772 222.535,383.280 227.234,384.006 234.000 C 384.207 235.870,384.548 239.020,384.765 241.000 C 385.573 248.392,385.991 252.315,386.405 256.400 C 386.639 258.710,387.000 262.040,387.206 263.800 C 387.413 265.560,387.861 269.700,388.202 273.000 C 388.543 276.300,388.998 280.620,389.214 282.600 C 389.431 284.580,389.964 289.530,390.399 293.600 C 390.835 297.670,391.373 302.665,391.596 304.700 C 391.818 306.735,392.186 310.155,392.414 312.300 C 393.089 318.658,393.616 323.572,394.035 327.400 C 394.838 334.743,395.176 337.904,395.598 342.000 C 395.835 344.310,396.195 347.640,396.397 349.400 C 396.746 352.443,397.075 355.472,398.016 364.300 C 398.244 366.445,398.605 369.550,398.818 371.200 C 399.031 372.850,399.207 375.010,399.209 376.000 C 399.211 376.990,399.387 378.070,399.600 378.400 C 400.295 379.475,400.138 377.503,397.979 358.000 C 397.414 352.896,396.822 347.425,396.398 343.400 C 396.189 341.420,395.830 338.090,395.600 336.000 C 395.370 333.910,394.995 330.490,394.768 328.400 C 394.540 326.310,394.192 323.160,393.994 321.400 C 393.796 319.640,393.446 316.445,393.217 314.300 C 392.433 306.963,391.963 302.599,391.582 299.100 C 390.830 292.211,390.241 286.723,389.207 277.000 C 388.997 275.020,388.643 271.780,388.422 269.800 C 387.984 265.888,387.444 260.758,386.842 254.800 C 386.630 252.710,386.177 248.390,385.834 245.200 C 385.491 242.010,385.023 237.600,384.794 235.400 C 384.566 233.200,384.197 229.780,383.974 227.800 C 383.751 225.820,383.391 222.490,383.174 220.400 C 382.957 218.310,382.605 214.980,382.391 213.000 C 382.177 211.020,381.812 207.600,381.580 205.400 C 381.064 200.513,380.533 195.603,379.991 190.700 C 379.205 183.600,378.424 176.402,377.590 168.600 C 377.012 163.187,376.479 158.301,376.007 154.100 C 375.790 152.175,375.504 149.565,375.370 148.300 L 375.126 146.000 321.392 146.000 C 270.554 146.000,267.649 145.962,267.476 145.300 C 267.338 144.773,267.281 144.823,267.246 145.500 M47.368 166.852 C 47.215 167.100,46.941 168.675,46.760 170.352 C 46.579 172.028,46.231 174.930,45.987 176.800 C 45.743 178.670,45.389 181.460,45.200 183.000 C 45.011 184.540,44.664 187.285,44.428 189.100 C 44.193 190.915,43.820 193.840,43.600 195.600 C 43.380 197.360,43.020 200.240,42.800 202.000 C 42.580 203.760,42.226 206.595,42.014 208.300 C 41.802 210.005,40.085 223.640,38.199 238.600 C 36.313 253.560,34.597 267.195,34.385 268.900 C 33.564 275.510,33.184 278.521,32.772 281.700 C 32.536 283.515,32.187 286.260,31.996 287.800 C 31.168 294.477,30.727 297.992,30.363 300.800 C 30.150 302.450,29.806 305.150,29.600 306.800 C 29.394 308.450,29.050 311.150,28.837 312.800 C 28.623 314.450,28.247 317.420,28.000 319.400 C 27.753 321.380,27.393 324.260,27.200 325.800 C 27.007 327.340,26.658 330.130,26.425 332.000 C 26.193 333.870,25.827 336.750,25.613 338.400 C 25.237 341.307,24.815 344.654,24.015 351.100 C 23.803 352.805,23.437 355.692,23.201 357.515 C 22.965 359.338,22.878 361.003,23.009 361.215 C 23.430 361.896,377.177 361.726,377.438 361.044 C 377.626 360.557,377.245 356.534,375.608 341.700 C 375.384 339.665,375.015 336.245,374.789 334.100 C 374.564 331.955,374.208 328.670,374.000 326.800 C 373.792 324.930,373.436 321.645,373.211 319.500 C 372.985 317.355,372.615 313.845,372.389 311.700 C 372.164 309.555,371.808 306.270,371.600 304.400 C 371.392 302.530,371.030 299.200,370.797 297.000 C 369.726 286.915,369.541 285.202,369.197 282.200 C 368.995 280.440,368.635 277.110,368.398 274.800 C 367.907 270.028,367.411 265.429,366.825 260.200 C 366.603 258.220,366.232 254.800,366.000 252.600 C 365.768 250.400,365.407 247.070,365.196 245.200 C 364.986 243.330,364.630 240.000,364.404 237.800 C 364.179 235.600,363.634 230.470,363.193 226.400 C 362.752 222.330,361.848 213.870,361.184 207.600 C 360.520 201.330,359.800 194.580,359.586 192.600 C 359.371 190.620,359.017 187.290,358.800 185.200 C 358.583 183.110,358.235 179.870,358.027 178.000 C 357.820 176.130,357.541 173.520,357.407 172.200 C 357.273 170.880,357.070 169.035,356.957 168.100 L 356.751 166.400 308.799 166.400 C 282.426 166.400,260.764 166.535,260.662 166.700 C 260.560 166.865,281.948 166.954,308.191 166.897 L 355.905 166.794 356.189 167.697 C 356.345 168.194,356.648 170.310,356.861 172.400 C 357.355 177.241,357.908 182.474,358.383 186.800 C 358.588 188.670,358.955 192.090,359.198 194.400 C 359.442 196.710,359.802 200.040,360.000 201.800 C 360.198 203.560,360.543 206.800,360.768 209.000 C 360.993 211.200,361.358 214.620,361.579 216.600 C 361.800 218.580,362.158 221.910,362.374 224.000 C 362.590 226.090,362.947 229.510,363.168 231.600 C 363.388 233.690,363.843 238.010,364.179 241.200 C 364.515 244.390,364.974 248.710,365.198 250.800 C 365.422 252.890,365.793 256.400,366.023 258.600 C 366.253 260.800,366.618 264.220,366.834 266.200 C 367.300 270.462,367.838 275.491,368.420 281.000 C 369.101 287.450,369.587 291.955,370.017 295.800 C 370.238 297.780,370.590 301.020,370.800 303.000 C 371.010 304.980,371.378 308.310,371.618 310.400 C 371.858 312.490,372.211 315.730,372.403 317.600 C 372.594 319.470,372.953 322.800,373.200 325.000 C 373.659 329.090,374.055 332.729,374.810 339.800 C 375.044 342.000,375.404 345.330,375.610 347.200 C 375.815 349.070,376.158 352.310,376.372 354.400 C 376.587 356.490,376.881 358.785,377.026 359.500 L 377.291 360.800 200.399 360.800 L 23.507 360.800 23.757 358.300 C 23.894 356.925,24.189 354.360,24.412 352.600 C 24.790 349.613,24.967 348.222,25.966 340.400 C 26.177 338.750,26.552 335.780,26.800 333.800 C 27.048 331.820,27.419 328.895,27.625 327.300 C 27.831 325.705,28.169 323.095,28.375 321.500 C 28.581 319.905,28.943 317.070,29.179 315.200 C 29.415 313.330,29.781 310.450,29.993 308.800 C 30.204 307.150,30.557 304.360,30.776 302.600 C 30.996 300.840,31.350 298.050,31.563 296.400 C 32.047 292.663,32.734 287.134,33.205 283.200 C 33.784 278.362,35.947 260.872,36.383 257.499 C 36.604 255.793,36.976 252.823,37.210 250.899 C 37.444 248.974,37.806 246.230,38.016 244.800 C 38.225 243.370,38.483 241.300,38.590 240.200 C 38.696 239.100,38.979 236.670,39.217 234.800 C 39.455 232.930,39.823 230.050,40.034 228.400 C 40.244 226.750,40.589 224.050,40.800 222.400 C 41.011 220.750,41.371 217.960,41.600 216.200 C 41.829 214.440,42.189 211.650,42.400 210.000 C 42.611 208.350,42.956 205.650,43.166 204.000 C 43.377 202.350,43.752 199.380,44.000 197.400 C 44.248 195.420,44.614 192.540,44.815 191.000 C 45.015 189.460,45.357 186.760,45.576 185.000 C 45.794 183.240,46.169 180.270,46.409 178.400 C 46.650 176.530,46.997 173.740,47.181 172.200 C 47.365 170.660,47.647 168.815,47.808 168.100 L 48.100 166.800 95.306 166.800 C 139.782 166.800,142.545 166.840,143.078 167.500 C 143.589 168.132,143.602 168.112,143.208 167.300 L 142.772 166.400 95.210 166.400 C 60.310 166.400,47.573 166.520,47.368 166.852 M146.828 177.292 C 146.782 177.765,148.086 180.848,148.258 180.675 C 148.345 180.588,148.066 179.725,147.637 178.758 C 147.208 177.791,146.844 177.131,146.828 177.292 M149.600 184.084 C 149.600 184.516,150.815 187.200,151.011 187.200 C 151.121 187.200,150.933 186.534,150.593 185.721 C 149.993 184.286,149.600 183.638,149.600 184.084 M252.200 187.461 C 251.864 188.265,251.682 189.015,251.795 189.128 C 251.908 189.241,252.000 189.235,252.000 189.116 C 252.000 188.996,252.272 188.246,252.605 187.449 C 252.938 186.652,253.121 186.000,253.011 186.000 C 252.901 186.000,252.536 186.658,252.200 187.461 M308.600 191.596 C 306.502 191.832,306.749 191.874,310.567 191.933 C 312.968 191.970,314.858 191.933,314.767 191.851 C 314.369 191.496,310.804 191.349,308.600 191.596 M303.500 192.282 C 303.995 192.378,304.805 192.378,305.300 192.282 C 305.795 192.187,305.390 192.109,304.400 192.109 C 303.410 192.109,303.005 192.187,303.500 192.282 M300.526 192.785 C 299.826 192.952,298.656 193.470,297.926 193.937 C 296.244 195.015,296.737 195.071,298.490 194.001 C 299.211 193.562,300.160 193.200,300.600 193.195 C 301.040 193.191,301.670 193.013,302.000 192.800 C 302.685 192.357,302.339 192.354,300.526 192.785 M318.925 193.749 C 319.543 194.255,320.300 195.374,320.607 196.235 C 320.914 197.096,321.173 197.476,321.182 197.080 C 321.216 195.687,319.102 192.765,318.095 192.814 C 317.933 192.822,318.306 193.243,318.925 193.749 M295.600 196.199 C 295.306 196.749,295.186 197.319,295.333 197.466 C 295.480 197.613,295.600 197.493,295.600 197.198 C 295.600 196.904,295.898 196.334,296.262 195.931 C 296.626 195.529,296.747 195.200,296.530 195.200 C 296.313 195.200,295.894 195.650,295.600 196.199 M294.730 198.440 C 293.003 202.715,299.823 207.953,304.600 206.020 C 305.062 205.833,304.278 205.782,302.745 205.899 C 298.318 206.238,295.692 204.192,295.236 200.047 C 295.094 198.764,294.877 198.075,294.730 198.440 M320.673 200.852 C 320.529 201.427,319.688 202.551,318.804 203.349 C 317.025 204.956,317.044 205.250,318.844 203.968 C 320.106 203.070,321.345 201.035,321.092 200.276 C 321.006 200.018,320.817 200.277,320.673 200.852 M307.400 205.183 C 306.427 205.334,307.761 205.462,310.800 205.508 C 313.550 205.549,316.006 205.452,316.258 205.291 C 316.826 204.930,309.588 204.841,307.400 205.183 M333.459 207.490 C 332.122 207.690,328.796 210.837,328.809 211.889 C 328.815 212.326,329.073 212.083,329.478 211.261 C 330.337 209.518,332.005 208.310,334.330 207.748 C 336.173 207.302,335.685 207.158,333.459 207.490 M337.000 207.887 C 338.426 208.234,340.271 209.917,341.156 211.679 C 341.631 212.626,341.902 212.950,341.757 212.400 C 341.189 210.233,338.469 207.550,336.938 207.646 C 336.284 207.688,336.291 207.715,337.000 207.887 M162.200 210.400 C 162.541 211.060,162.911 211.600,163.021 211.600 C 163.131 211.600,162.941 211.060,162.600 210.400 C 162.259 209.740,161.889 209.200,161.779 209.200 C 161.669 209.200,161.859 209.740,162.200 210.400 M164.240 214.002 C 164.839 215.103,165.393 215.940,165.471 215.863 C 165.643 215.690,163.608 212.000,163.341 212.000 C 163.236 212.000,163.640 212.901,164.240 214.002 M342.226 214.800 C 343.398 222.441,342.570 228.868,340.036 231.799 L 339.000 232.997 340.142 231.999 C 342.837 229.643,344.158 220.717,342.598 215.400 C 342.203 214.056,342.081 213.859,342.226 214.800 M328.806 216.433 C 328.809 216.965,328.989 217.670,329.206 218.000 C 329.482 218.422,329.523 218.185,329.342 217.200 C 329.025 215.475,328.798 215.149,328.806 216.433 M166.426 217.900 C 168.387 221.199,169.694 223.200,169.888 223.200 C 170.000 223.200,169.783 222.728,169.405 222.152 C 169.027 221.575,168.098 220.045,167.340 218.752 C 166.582 217.458,165.866 216.400,165.748 216.400 C 165.631 216.400,165.936 217.075,166.426 217.900 M235.453 219.991 C 234.874 220.867,234.400 221.717,234.400 221.880 C 234.400 222.044,234.642 221.823,234.939 221.389 C 236.241 219.481,236.878 218.400,236.699 218.400 C 236.593 218.400,236.032 219.116,235.453 219.991 M329.052 224.100 C 327.954 228.198,330.429 233.652,333.359 233.591 C 333.602 233.586,333.145 233.202,332.343 232.737 C 329.985 231.370,329.046 229.258,329.323 225.950 C 329.560 223.119,329.474 222.527,329.052 224.100 M232.164 225.329 C 231.709 226.028,231.015 227.095,230.622 227.700 C 230.229 228.305,229.993 228.800,230.097 228.800 C 230.366 228.800,233.286 224.353,233.124 224.191 C 233.051 224.117,232.618 224.629,232.164 225.329 M334.900 233.876 C 335.285 233.976,335.915 233.976,336.300 233.876 C 336.685 233.775,336.370 233.693,335.600 233.693 C 334.830 233.693,334.515 233.775,334.900 233.876 M224.206 237.488 L 223.504 238.600 224.430 237.711 C 224.939 237.222,225.255 236.722,225.132 236.599 C 225.009 236.476,224.592 236.876,224.206 237.488 M180.000 238.655 C 180.000 238.857,181.258 240.728,182.795 242.811 C 184.332 244.895,185.592 246.735,185.595 246.900 C 185.598 247.065,185.787 247.200,186.016 247.200 C 186.244 247.200,185.399 245.805,184.137 244.100 C 182.876 242.395,181.428 240.390,180.922 239.644 C 180.415 238.898,180.000 238.454,180.000 238.655 M315.600 244.060 C 312.300 245.846,312.182 246.289,315.447 244.639 C 325.226 239.696,331.539 250.292,322.103 255.811 C 319.369 257.411,318.699 258.090,321.100 256.828 C 325.313 254.614,326.984 252.488,326.940 249.400 C 326.860 243.725,321.171 241.046,315.600 244.060 M216.975 247.468 C 216.359 248.276,216.059 248.811,216.309 248.656 C 216.821 248.340,218.553 246.000,218.275 246.000 C 218.176 246.000,217.591 246.661,216.975 247.468 M305.800 248.000 C 305.508 248.473,305.899 248.473,307.000 248.000 C 307.771 247.669,307.769 247.655,306.924 247.628 C 306.442 247.613,305.936 247.780,305.800 248.000 M303.524 249.500 C 302.388 250.718,301.437 252.371,301.714 252.647 C 301.812 252.745,302.120 252.276,302.398 251.605 C 302.676 250.933,303.434 249.937,304.083 249.392 C 304.731 248.846,305.101 248.400,304.906 248.400 C 304.710 248.400,304.088 248.895,303.524 249.500 M274.711 250.293 C 275.651 250.378,277.091 250.377,277.911 250.291 C 278.730 250.205,277.960 250.136,276.200 250.137 C 274.440 250.139,273.770 250.209,274.711 250.293 M282.466 250.377 C 284.388 250.752,285.856 251.745,286.818 253.322 C 287.246 254.025,287.598 254.389,287.599 254.131 C 287.603 252.598,284.073 249.966,282.120 250.046 C 281.149 250.086,281.195 250.130,282.466 250.377 M268.500 250.691 C 269.325 250.778,270.675 250.778,271.500 250.691 C 272.325 250.605,271.650 250.534,270.000 250.534 C 268.350 250.534,267.675 250.605,268.500 250.691 M189.634 251.847 C 190.165 252.533,190.680 253.023,190.779 252.935 C 190.877 252.847,190.443 252.286,189.813 251.688 L 188.669 250.600 189.634 251.847 M263.876 252.100 C 263.154 252.815,263.021 253.017,263.581 252.550 C 264.142 252.082,265.140 251.512,265.800 251.281 C 266.829 250.923,266.871 250.859,266.094 250.832 C 265.577 250.814,264.625 251.358,263.876 252.100 M238.000 252.812 C 237.253 253.091,237.535 253.133,239.114 252.977 C 244.914 252.405,248.801 256.350,247.204 261.189 C 246.630 262.928,244.449 265.178,243.286 265.232 C 242.841 265.252,242.782 265.336,243.118 265.471 C 244.005 265.826,246.372 263.882,247.255 262.073 C 249.905 256.643,243.880 250.614,238.000 252.812 M233.000 253.600 L 231.400 253.886 232.800 253.903 C 233.570 253.913,234.650 253.776,235.200 253.600 C 236.485 253.188,235.299 253.188,233.000 253.600 M228.400 254.400 L 227.000 254.695 228.400 254.719 C 229.170 254.733,230.160 254.589,230.600 254.400 L 231.400 254.056 230.600 254.081 C 230.160 254.094,229.170 254.238,228.400 254.400 M225.000 255.365 C 222.932 256.284,221.135 258.843,221.236 260.726 C 221.256 261.097,221.451 260.777,221.670 260.015 C 222.272 257.914,223.534 256.399,225.356 255.588 C 226.260 255.186,226.820 254.851,226.600 254.844 C 226.380 254.837,225.660 255.071,225.000 255.365 M287.657 256.600 C 287.662 258.326,287.715 258.458,288.043 257.566 C 288.284 256.909,288.282 256.179,288.037 255.566 C 287.712 254.753,287.652 254.918,287.657 256.600 M301.608 256.200 C 301.597 257.061,303.258 259.247,304.496 260.002 C 305.213 260.439,305.980 260.795,306.200 260.792 C 306.420 260.789,305.884 260.381,305.008 259.885 C 304.116 259.380,303.020 258.284,302.515 257.392 C 302.019 256.516,301.611 255.980,301.608 256.200 M317.400 258.214 C 316.740 258.517,316.470 258.766,316.800 258.768 C 317.130 258.770,317.850 258.514,318.400 258.200 C 319.665 257.477,318.989 257.487,317.400 258.214 M207.226 259.322 L 206.251 260.600 207.526 259.425 C 208.851 258.203,209.003 257.985,208.500 258.022 C 208.335 258.034,207.762 258.619,207.226 259.322 M196.229 259.638 C 196.873 260.429,197.481 261.008,197.579 260.925 C 197.678 260.842,197.151 260.195,196.409 259.487 L 195.058 258.200 196.229 259.638 M261.609 259.314 C 261.588 260.978,263.964 263.266,266.200 263.735 C 266.981 263.899,266.663 263.646,265.288 263.011 C 263.570 262.217,263.031 261.715,262.397 260.317 C 261.968 259.373,261.614 258.921,261.609 259.314 M286.589 260.426 C 286.155 261.076,285.080 261.966,284.200 262.404 C 283.320 262.841,282.849 263.200,283.153 263.200 C 284.462 263.200,288.131 259.998,287.521 259.387 C 287.442 259.308,287.022 259.776,286.589 260.426 M312.400 259.825 C 311.630 260.116,311.270 260.362,311.600 260.371 C 311.930 260.381,312.920 260.129,313.800 259.812 C 314.680 259.495,315.040 259.249,314.600 259.265 C 314.160 259.282,313.170 259.534,312.400 259.825 M307.505 261.083 C 308.002 261.179,308.722 261.175,309.105 261.075 C 309.487 260.975,309.080 260.896,308.200 260.901 C 307.320 260.905,307.007 260.987,307.505 261.083 M198.000 261.458 C 198.000 261.674,198.585 262.379,199.300 263.025 L 200.600 264.200 199.400 262.802 C 198.740 262.033,198.155 261.328,198.100 261.235 C 198.045 261.143,198.000 261.243,198.000 261.458 M221.227 262.113 C 221.182 263.313,222.236 265.347,223.448 266.399 L 224.600 267.397 223.472 266.148 C 222.852 265.461,222.099 264.111,221.799 263.149 C 221.499 262.187,221.241 261.721,221.227 262.113 M278.291 263.489 C 279.001 263.577,280.261 263.579,281.091 263.492 C 281.921 263.405,281.340 263.333,279.800 263.331 C 278.260 263.329,277.581 263.400,278.291 263.489 M272.291 263.889 C 273.001 263.977,274.261 263.979,275.091 263.892 C 275.921 263.805,275.340 263.733,273.800 263.731 C 272.260 263.729,271.581 263.800,272.291 263.889 M206.825 265.578 C 207.651 266.447,208.451 267.719,208.602 268.407 C 208.953 270.006,209.286 269.732,208.962 268.110 C 208.739 266.994,206.302 264.000,205.616 264.000 C 205.455 264.000,206.000 264.710,206.825 265.578 M94.800 264.798 C 99.968 265.160,101.052 265.691,102.570 268.601 C 102.914 269.260,103.196 269.517,103.198 269.172 C 103.208 266.483,99.164 264.369,94.200 264.468 L 91.000 264.532 94.800 264.798 M87.800 265.200 L 87.000 265.544 87.800 265.532 C 88.240 265.526,89.050 265.376,89.600 265.200 L 90.600 264.880 89.600 264.868 C 89.050 264.862,88.240 265.011,87.800 265.200 M196.400 265.633 L 195.400 266.448 196.700 265.814 C 197.415 265.465,198.000 265.094,198.000 264.990 C 198.000 264.592,197.363 264.848,196.400 265.633 M240.000 266.000 L 239.000 266.320 240.000 266.332 C 240.550 266.338,241.360 266.189,241.800 266.000 L 242.600 265.656 241.800 265.668 C 241.360 265.674,240.550 265.824,240.000 266.000 M235.400 266.800 C 234.311 267.077,234.293 267.107,235.200 267.125 C 235.750 267.135,236.560 266.989,237.000 266.800 C 237.986 266.376,237.066 266.376,235.400 266.800 M80.369 268.110 C 77.772 269.860,75.862 275.526,77.524 276.553 C 77.702 276.663,77.772 275.712,77.680 274.441 C 77.466 271.481,78.233 269.942,80.700 268.377 C 81.721 267.730,82.368 267.200,82.137 267.200 C 81.907 267.200,81.111 267.609,80.369 268.110 M230.000 267.600 L 228.600 267.895 230.200 267.919 C 231.080 267.933,232.160 267.789,232.600 267.600 C 233.642 267.152,232.126 267.152,230.000 267.600 M189.995 269.453 C 186.379 271.848,183.685 275.018,184.540 275.873 C 184.643 275.976,184.854 275.642,185.010 275.130 C 185.520 273.453,187.095 271.762,189.769 270.020 C 192.052 268.532,192.718 268.000,192.295 268.000 C 192.237 268.000,191.202 268.654,189.995 269.453 M208.573 271.804 C 208.428 272.577,208.150 273.307,207.955 273.428 C 207.760 273.549,207.600 273.857,207.600 274.113 C 207.600 274.369,207.847 274.223,208.149 273.789 C 208.732 272.951,209.410 270.400,209.050 270.400 C 208.932 270.400,208.718 271.032,208.573 271.804 M102.800 273.303 C 102.800 274.229,101.026 276.189,99.511 276.936 C 98.719 277.326,98.477 277.585,98.899 277.591 C 100.349 277.610,103.816 273.682,103.037 272.903 C 102.906 272.773,102.800 272.953,102.800 273.303 M206.206 275.190 C 206.073 275.405,204.803 276.230,203.382 277.025 C 201.962 277.819,200.800 278.561,200.800 278.673 C 200.800 278.940,205.126 276.503,206.354 275.545 C 206.879 275.135,207.114 274.800,206.878 274.800 C 206.641 274.800,206.339 274.976,206.206 275.190 M78.615 278.120 C 79.322 279.245,81.109 280.414,82.080 280.384 C 82.366 280.376,82.040 280.125,81.356 279.827 C 80.672 279.529,79.617 278.771,79.012 278.143 L 77.912 277.000 78.615 278.120 M94.300 277.889 C 95.015 277.978,96.185 277.978,96.900 277.889 C 97.615 277.801,97.030 277.728,95.600 277.728 C 94.170 277.728,93.585 277.801,94.300 277.889 M90.000 278.406 C 89.578 278.682,89.815 278.723,90.800 278.542 C 92.525 278.225,92.851 277.998,91.567 278.006 C 91.035 278.009,90.330 278.189,90.000 278.406 M184.409 278.316 C 184.376 280.262,186.849 282.958,189.058 283.384 L 190.200 283.605 189.000 283.151 C 187.298 282.509,186.011 281.252,185.156 279.400 C 184.750 278.520,184.414 278.032,184.409 278.316 M197.298 280.700 C 195.742 281.745,194.526 282.658,194.596 282.729 C 194.735 282.869,200.400 279.172,200.400 278.941 C 200.400 278.652,200.063 278.843,197.298 280.700 M169.305 287.487 C 169.914 287.579,170.814 287.577,171.305 287.482 C 171.797 287.387,171.300 287.311,170.200 287.314 C 169.100 287.317,168.697 287.395,169.305 287.487 M163.312 290.247 C 161.160 291.703,159.130 293.171,158.800 293.510 C 158.470 293.850,159.921 292.952,162.023 291.517 C 164.126 290.081,166.376 288.619,167.023 288.269 C 167.671 287.919,167.980 287.625,167.712 287.616 C 167.443 287.607,165.463 288.791,163.312 290.247 M66.200 288.614 C 65.540 288.917,65.270 289.164,65.600 289.164 C 65.930 289.164,66.740 288.917,67.400 288.614 C 68.060 288.312,68.330 288.065,68.000 288.065 C 67.670 288.065,66.860 288.312,66.200 288.614 M173.200 288.159 C 173.200 288.261,173.785 288.756,174.500 289.257 C 175.422 289.904,175.635 289.964,175.233 289.463 C 174.660 288.750,173.200 287.813,173.200 288.159 M70.000 288.872 C 70.770 289.092,71.629 289.462,71.910 289.693 C 72.190 289.925,72.511 290.022,72.624 289.909 C 72.922 289.611,70.209 288.394,69.340 288.436 C 68.933 288.456,69.230 288.652,70.000 288.872 M63.404 290.396 C 62.774 291.054,62.342 291.675,62.444 291.777 C 62.546 291.879,63.126 291.341,63.732 290.581 C 65.087 288.883,64.936 288.797,63.404 290.396 M73.481 291.361 C 73.877 291.889,74.257 292.267,74.328 292.200 C 74.538 291.999,73.434 290.400,73.085 290.400 C 72.908 290.400,73.086 290.832,73.481 291.361 M176.394 294.081 C 176.287 295.336,176.346 296.216,176.524 296.037 C 176.703 295.858,176.790 294.831,176.718 293.756 L 176.587 291.800 176.394 294.081 M61.754 292.977 C 61.632 293.294,61.603 293.879,61.689 294.277 C 61.787 294.728,61.924 294.512,62.054 293.700 C 62.271 292.338,62.130 291.996,61.754 292.977 M74.909 295.200 C 74.909 296.190,74.987 296.595,75.082 296.100 C 75.178 295.605,75.178 294.795,75.082 294.300 C 74.987 293.805,74.909 294.210,74.909 295.200 M61.049 295.815 C 60.912 296.173,60.821 296.946,60.846 297.533 C 60.880 298.332,60.970 298.198,61.204 297.000 C 61.535 295.300,61.462 294.740,61.049 295.815 M154.567 296.560 C 153.705 297.308,153.090 298.012,153.200 298.124 C 153.310 298.236,154.115 297.624,154.989 296.764 C 156.945 294.839,156.690 294.716,154.567 296.560 M174.425 298.569 L 173.050 300.200 174.605 298.713 C 175.460 297.896,176.079 297.162,175.980 297.083 C 175.881 297.003,175.181 297.672,174.425 298.569 M73.866 301.168 C 73.719 302.578,73.674 303.807,73.766 303.900 C 74.014 304.147,74.515 299.746,74.310 299.130 C 74.213 298.840,74.014 299.757,73.866 301.168 M152.643 299.433 C 152.306 300.309,152.349 303.301,152.706 303.862 C 152.868 304.116,153.000 303.081,153.000 301.562 C 153.000 298.541,152.995 298.514,152.643 299.433 M60.257 301.100 C 59.915 303.168,59.948 308.499,60.306 309.061 C 60.468 309.315,60.610 307.290,60.621 304.561 C 60.644 299.123,60.621 298.898,60.257 301.100 M168.000 303.248 C 165.470 305.007,163.220 306.642,163.000 306.881 C 162.780 307.121,164.803 305.836,167.496 304.026 C 171.572 301.287,173.399 299.889,172.724 300.025 C 172.656 300.039,170.530 301.489,168.000 303.248 M73.720 306.800 C 73.720 308.010,73.795 308.505,73.887 307.900 C 73.978 307.295,73.978 306.305,73.887 305.700 C 73.795 305.095,73.720 305.590,73.720 306.800 M153.554 305.513 C 154.331 306.966,156.259 308.024,158.486 308.221 C 160.995 308.442,160.606 308.172,157.887 307.805 C 156.420 307.607,155.640 307.213,154.541 306.115 C 153.728 305.301,153.301 305.041,153.554 305.513 M132.200 308.768 C 128.553 310.115,127.887 310.420,128.110 310.644 C 128.232 310.765,128.752 310.638,129.266 310.361 C 129.780 310.084,131.370 309.450,132.800 308.952 C 134.230 308.454,135.130 308.043,134.800 308.038 C 134.470 308.033,133.300 308.361,132.200 308.768 M138.222 308.784 C 139.181 309.172,141.600 311.819,141.600 312.481 C 141.600 312.730,141.711 312.823,141.846 312.688 C 142.550 311.984,139.209 308.362,137.914 308.425 C 137.631 308.439,137.770 308.600,138.222 308.784 M73.200 310.309 C 73.200 310.699,72.644 311.734,71.966 312.609 L 70.731 314.200 72.166 312.633 C 73.384 311.302,74.077 309.600,73.400 309.600 C 73.290 309.600,73.200 309.919,73.200 310.309 M60.825 310.622 C 60.811 311.081,61.460 312.050,62.299 312.822 C 63.536 313.959,63.610 313.990,62.722 313.000 C 62.130 312.340,61.467 311.350,61.248 310.800 C 60.899 309.922,60.848 309.900,60.825 310.622 M119.989 314.037 C 117.310 315.591,115.548 319.858,116.762 321.852 C 117.137 322.469,117.174 322.348,116.976 321.164 C 116.473 318.168,117.966 315.460,121.000 313.864 C 121.660 313.516,122.020 313.229,121.800 313.225 C 121.580 313.221,120.765 313.587,119.989 314.037 M142.109 314.800 C 142.109 315.790,142.187 316.195,142.282 315.700 C 142.378 315.205,142.378 314.395,142.282 313.900 C 142.187 313.405,142.109 313.810,142.109 314.800 M140.791 318.215 C 140.238 319.110,139.088 320.057,137.658 320.795 C 135.243 322.043,135.042 322.360,137.251 321.436 C 139.132 320.651,140.709 319.336,141.418 317.965 C 142.257 316.343,141.847 316.507,140.791 318.215 M83.100 320.282 C 83.595 320.378,84.405 320.378,84.900 320.282 C 85.395 320.187,84.990 320.109,84.000 320.109 C 83.010 320.109,82.605 320.187,83.100 320.282 M79.795 321.658 C 77.721 323.479,76.301 327.797,77.528 328.555 C 77.708 328.667,77.776 328.220,77.680 327.562 C 77.392 325.600,78.671 322.897,80.441 321.725 C 81.299 321.158,82.000 320.628,82.000 320.547 C 82.000 320.079,81.045 320.561,79.795 321.658 M92.200 320.821 L 87.800 321.042 93.762 321.121 C 100.584 321.211,101.749 321.683,103.235 324.954 C 103.646 325.859,103.986 326.282,103.991 325.894 C 104.038 322.111,100.117 320.423,92.200 320.821 M132.600 323.023 C 129.252 324.403,127.712 325.180,128.305 325.191 C 128.583 325.196,129.123 325.035,129.505 324.833 C 130.899 324.096,134.001 322.800,134.372 322.800 C 134.581 322.800,134.864 322.620,135.000 322.400 C 135.316 321.889,135.414 321.863,132.600 323.023 M117.200 323.091 C 117.200 323.526,119.483 325.623,120.695 326.300 C 121.187 326.575,122.357 326.770,123.295 326.733 L 125.000 326.666 123.400 326.515 C 121.239 326.313,119.475 325.443,118.233 323.966 C 117.665 323.291,117.200 322.897,117.200 323.091 M126.200 325.814 C 125.195 326.298,125.163 326.353,126.000 326.151 C 126.550 326.019,127.171 325.750,127.380 325.555 C 127.898 325.071,127.614 325.133,126.200 325.814 M103.487 329.165 C 103.311 329.986,102.552 331.141,101.580 332.065 C 99.876 333.686,99.893 334.204,101.600 332.685 C 103.088 331.361,104.067 329.666,103.915 328.676 C 103.810 327.994,103.715 328.102,103.487 329.165 M78.000 329.629 C 78.000 330.372,80.680 333.054,81.051 332.682 C 81.196 332.537,81.010 332.302,80.637 332.159 C 80.265 332.016,79.519 331.250,78.980 330.457 C 78.441 329.663,78.000 329.291,78.000 329.629 M85.400 334.004 C 86.167 334.330,89.511 334.553,89.167 334.256 C 89.075 334.177,88.010 334.011,86.800 333.888 C 85.431 333.749,84.902 333.792,85.400 334.004 M96.400 334.000 L 94.200 334.270 96.200 334.329 C 97.300 334.361,98.470 334.213,98.800 334.000 C 99.130 333.787,99.220 333.639,99.000 333.671 C 98.780 333.704,97.610 333.852,96.400 334.000 M0.000 381.600 C 0.000 381.866,66.933 382.000,200.000 382.000 C 333.067 382.000,400.000 381.866,400.000 381.600 C 400.000 381.334,333.067 381.200,200.000 381.200 C 66.933 381.200,0.000 381.334,0.000 381.600 " stroke="none" fill="#ced4dc" fill-rule="evenodd"></path></g></svg>