<svg id="svg" version="1.1" width="400" height="400" viewBox="0 0 400 400" xmlns="http://www.w3.org/2000/svg" xmlns:xlink="http://www.w3.org/1999/xlink" ><g id="svgg"><path id="path0" d="M85.400 302.000 C 87.764 304.389,89.017 305.348,87.170 303.353 C 85.181 301.207,83.512 299.600,83.273 299.600 C 83.136 299.600,84.094 300.680,85.400 302.000 M97.777 314.299 C 99.085 315.663,100.216 316.718,100.290 316.643 C 100.437 316.496,98.406 314.416,96.547 312.809 C 95.916 312.264,96.470 312.934,97.777 314.299 " stroke="none" fill="#000000" fill-rule="evenodd"></path><path id="path1" d="M37.400 91.235 C 30.452 98.036,28.746 99.743,27.320 101.320 C 26.396 102.342,25.424 103.581,25.161 104.072 C 24.898 104.564,23.809 105.817,22.742 106.857 C 21.674 107.897,20.800 108.858,20.800 108.992 C 20.800 109.126,20.395 109.656,19.900 110.168 C 18.426 111.693,17.600 112.784,17.600 113.205 C 17.600 113.422,17.459 113.600,17.286 113.600 C 17.114 113.600,16.677 114.101,16.315 114.712 C 15.954 115.324,15.108 116.449,14.435 117.212 C 13.763 117.976,13.210 118.722,13.206 118.871 C 13.203 119.021,12.975 119.388,12.700 119.687 C 12.232 120.197,11.955 120.640,10.700 122.900 C 10.425 123.395,10.092 123.890,9.959 124.000 C 9.827 124.110,9.383 124.920,8.972 125.800 C 8.562 126.680,7.905 127.749,7.513 128.175 C 7.121 128.602,6.800 129.187,6.800 129.475 C 6.800 129.764,6.620 130.000,6.400 130.000 C 6.180 130.000,6.000 130.360,6.000 130.800 C 6.000 131.240,5.820 131.600,5.600 131.600 C 5.380 131.600,5.200 131.960,5.200 132.400 C 5.200 132.840,5.020 133.200,4.800 133.200 C 4.580 133.200,4.400 133.560,4.400 134.000 C 4.400 134.440,4.220 134.800,4.000 134.800 C 3.780 134.800,3.600 135.149,3.600 135.576 C 3.600 136.003,3.420 136.464,3.200 136.600 C 2.980 136.736,2.800 137.287,2.800 137.824 C 2.800 138.361,2.620 138.800,2.400 138.800 C 2.180 138.800,2.000 139.149,2.000 139.576 C 2.000 140.003,1.820 140.464,1.600 140.600 C 1.380 140.736,1.200 141.452,1.200 142.190 C 1.200 142.929,0.975 143.608,0.700 143.700 C 0.315 143.829,0.200 146.649,0.200 156.000 C 0.200 165.351,0.315 168.172,0.700 168.300 C 0.998 168.399,1.200 169.171,1.200 170.210 C 1.200 171.168,1.380 172.064,1.600 172.200 C 1.820 172.336,2.000 173.067,2.000 173.824 C 2.000 174.581,2.180 175.200,2.400 175.200 C 2.620 175.200,2.800 175.819,2.800 176.576 C 2.800 177.333,2.980 178.064,3.200 178.200 C 3.420 178.336,3.600 178.977,3.600 179.624 C 3.600 180.271,3.780 180.800,4.000 180.800 C 4.220 180.800,4.400 181.340,4.400 182.000 C 4.400 182.660,4.580 183.200,4.800 183.200 C 5.020 183.200,5.200 183.562,5.200 184.005 C 5.200 184.448,5.359 185.123,5.553 185.505 C 5.748 185.887,6.129 186.740,6.400 187.400 C 6.671 188.060,7.052 188.913,7.247 189.295 C 7.441 189.677,7.600 190.352,7.600 190.795 C 7.600 191.238,7.759 191.600,7.953 191.600 C 8.148 191.600,8.399 192.005,8.513 192.500 C 8.766 193.607,9.728 196.128,10.000 196.400 C 10.110 196.510,10.258 196.870,10.328 197.200 C 10.534 198.165,15.334 207.787,15.682 207.933 C 15.857 208.007,16.000 208.412,16.000 208.833 C 16.000 209.255,16.180 209.600,16.400 209.600 C 16.620 209.600,16.800 209.960,16.800 210.400 C 16.800 210.840,16.980 211.200,17.200 211.200 C 17.420 211.200,17.600 211.560,17.600 212.000 C 17.600 212.440,17.780 212.800,18.000 212.800 C 18.220 212.800,18.400 213.036,18.400 213.325 C 18.400 213.613,18.760 214.236,19.200 214.708 C 19.640 215.180,20.000 215.844,20.000 216.183 C 20.000 216.522,20.180 216.800,20.400 216.800 C 20.620 216.800,20.800 217.160,20.800 217.600 C 20.800 218.040,20.980 218.400,21.200 218.400 C 21.420 218.400,21.600 218.760,21.600 219.200 C 21.600 219.640,21.780 220.000,22.000 220.000 C 22.220 220.000,22.400 220.270,22.400 220.600 C 22.400 220.930,22.580 221.200,22.800 221.200 C 23.020 221.200,23.200 221.470,23.200 221.800 C 23.200 222.130,23.380 222.400,23.600 222.400 C 23.820 222.400,24.000 222.655,24.000 222.967 C 24.000 223.278,24.135 223.593,24.300 223.667 C 24.465 223.740,25.032 224.610,25.560 225.600 C 27.105 228.497,29.375 232.189,29.700 232.333 C 29.865 232.407,30.000 232.688,30.000 232.958 C 30.000 233.228,30.315 233.798,30.700 234.225 C 31.085 234.651,31.655 235.495,31.968 236.100 C 32.280 236.705,32.685 237.200,32.868 237.200 C 33.050 237.200,33.200 237.470,33.200 237.800 C 33.200 238.130,33.350 238.400,33.532 238.400 C 33.715 238.400,34.119 238.895,34.430 239.500 C 34.740 240.105,35.311 240.891,35.697 241.247 C 36.084 241.603,36.400 242.099,36.400 242.351 C 36.400 242.602,36.940 243.372,37.600 244.063 C 38.260 244.754,38.800 245.522,38.800 245.771 C 38.800 246.020,39.160 246.483,39.600 246.800 C 40.040 247.117,40.400 247.631,40.400 247.941 C 40.400 248.252,40.732 248.797,41.137 249.153 C 41.543 249.509,42.110 250.250,42.398 250.800 C 43.087 252.115,47.101 257.482,48.500 258.958 C 49.105 259.596,49.600 260.290,49.600 260.499 C 49.600 260.708,50.140 261.383,50.800 262.000 C 51.460 262.617,52.000 263.297,52.000 263.512 C 52.000 263.727,52.720 264.645,53.600 265.552 C 54.480 266.459,55.200 267.359,55.200 267.552 C 55.200 267.745,55.875 268.606,56.700 269.464 C 57.525 270.322,58.732 271.739,59.383 272.612 C 60.034 273.485,61.069 274.677,61.683 275.260 C 62.297 275.844,62.800 276.501,62.800 276.720 C 62.800 276.939,63.657 277.995,64.705 279.065 C 65.753 280.135,67.057 281.638,67.601 282.405 C 68.146 283.172,69.674 284.905,70.996 286.256 C 72.318 287.608,74.300 289.740,75.400 290.996 C 81.466 297.922,102.078 318.534,109.004 324.600 C 110.260 325.700,112.392 327.682,113.744 329.004 C 115.095 330.326,116.828 331.854,117.595 332.399 C 118.362 332.943,119.865 334.247,120.935 335.295 C 122.005 336.343,123.061 337.200,123.280 337.200 C 123.499 337.200,124.156 337.703,124.740 338.317 C 125.323 338.931,126.515 339.966,127.388 340.617 C 128.261 341.268,129.678 342.475,130.536 343.300 C 131.394 344.125,132.255 344.800,132.448 344.800 C 132.641 344.800,133.541 345.520,134.448 346.400 C 135.355 347.280,136.273 348.000,136.488 348.000 C 136.703 348.000,137.383 348.540,138.000 349.200 C 138.617 349.860,139.292 350.400,139.501 350.400 C 139.710 350.400,140.404 350.895,141.042 351.500 C 142.518 352.899,147.885 356.913,149.200 357.602 C 149.750 357.890,150.491 358.457,150.847 358.863 C 151.203 359.268,151.748 359.600,152.059 359.600 C 152.369 359.600,152.883 359.960,153.200 360.400 C 153.517 360.840,153.980 361.200,154.229 361.200 C 154.478 361.200,155.246 361.740,155.937 362.400 C 156.628 363.060,157.398 363.600,157.649 363.600 C 157.901 363.600,158.397 363.916,158.753 364.303 C 159.109 364.689,159.895 365.260,160.500 365.570 C 161.105 365.881,161.600 366.285,161.600 366.468 C 161.600 366.650,161.870 366.800,162.200 366.800 C 162.530 366.800,162.800 366.950,162.800 367.132 C 162.800 367.315,163.295 367.720,163.900 368.032 C 164.505 368.345,165.349 368.915,165.775 369.300 C 166.202 369.685,166.772 370.000,167.042 370.000 C 167.312 370.000,167.593 370.135,167.667 370.300 C 167.811 370.625,171.503 372.895,174.400 374.440 C 175.390 374.968,176.260 375.535,176.333 375.700 C 176.407 375.865,176.722 376.000,177.033 376.000 C 177.345 376.000,177.600 376.180,177.600 376.400 C 177.600 376.620,177.870 376.800,178.200 376.800 C 178.530 376.800,178.800 376.980,178.800 377.200 C 178.800 377.420,179.070 377.600,179.400 377.600 C 179.730 377.600,180.000 377.780,180.000 378.000 C 180.000 378.220,180.360 378.400,180.800 378.400 C 181.240 378.400,181.600 378.580,181.600 378.800 C 181.600 379.020,181.960 379.200,182.400 379.200 C 182.840 379.200,183.200 379.380,183.200 379.600 C 183.200 379.820,183.478 380.000,183.817 380.000 C 184.156 380.000,184.820 380.360,185.292 380.800 C 185.764 381.240,186.387 381.600,186.675 381.600 C 186.964 381.600,187.200 381.780,187.200 382.000 C 187.200 382.220,187.560 382.400,188.000 382.400 C 188.440 382.400,188.800 382.580,188.800 382.800 C 188.800 383.020,189.160 383.200,189.600 383.200 C 190.040 383.200,190.400 383.380,190.400 383.600 C 190.400 383.820,190.745 384.000,191.167 384.000 C 191.588 384.000,191.993 384.143,192.067 384.318 C 192.213 384.666,201.835 389.466,202.800 389.672 C 203.130 389.742,203.490 389.890,203.600 390.000 C 203.872 390.272,206.393 391.234,207.500 391.487 C 207.995 391.601,208.400 391.852,208.400 392.047 C 208.400 392.241,208.762 392.400,209.205 392.400 C 209.648 392.400,210.323 392.559,210.705 392.753 C 211.087 392.948,211.940 393.329,212.600 393.600 C 213.260 393.871,214.113 394.252,214.495 394.447 C 214.877 394.641,215.552 394.800,215.995 394.800 C 216.438 394.800,216.800 394.980,216.800 395.200 C 216.800 395.420,217.340 395.600,218.000 395.600 C 218.660 395.600,219.200 395.780,219.200 396.000 C 219.200 396.220,219.729 396.400,220.376 396.400 C 221.023 396.400,221.664 396.580,221.800 396.800 C 221.936 397.020,222.667 397.200,223.424 397.200 C 224.181 397.200,224.800 397.380,224.800 397.600 C 224.800 397.820,225.419 398.000,226.176 398.000 C 226.933 398.000,227.664 398.180,227.800 398.400 C 227.936 398.620,228.832 398.800,229.790 398.800 C 230.829 398.800,231.601 399.002,231.700 399.300 C 231.828 399.685,234.649 399.800,244.000 399.800 C 253.351 399.800,256.171 399.685,256.300 399.300 C 256.392 399.025,257.071 398.800,257.810 398.800 C 258.548 398.800,259.264 398.620,259.400 398.400 C 259.536 398.180,259.997 398.000,260.424 398.000 C 260.851 398.000,261.200 397.820,261.200 397.600 C 261.200 397.380,261.639 397.200,262.176 397.200 C 262.713 397.200,263.264 397.020,263.400 396.800 C 263.536 396.580,263.997 396.400,264.424 396.400 C 264.851 396.400,265.200 396.220,265.200 396.000 C 265.200 395.780,265.560 395.600,266.000 395.600 C 266.440 395.600,266.800 395.420,266.800 395.200 C 266.800 394.980,267.160 394.800,267.600 394.800 C 268.040 394.800,268.400 394.620,268.400 394.400 C 268.400 394.180,268.760 394.000,269.200 394.000 C 269.640 394.000,270.000 393.820,270.000 393.600 C 270.000 393.380,270.236 393.200,270.525 393.200 C 270.813 393.200,271.398 392.879,271.825 392.487 C 272.251 392.095,273.320 391.438,274.200 391.028 C 275.080 390.617,275.890 390.173,276.000 390.041 C 276.182 389.821,276.631 389.550,278.985 388.238 C 279.416 387.997,280.014 387.575,280.313 387.300 C 280.612 387.025,280.979 386.797,281.129 386.794 C 281.278 386.790,282.024 386.237,282.788 385.565 C 283.551 384.892,284.676 384.046,285.288 383.685 C 285.899 383.323,286.400 382.886,286.400 382.714 C 286.400 382.541,286.578 382.400,286.795 382.400 C 287.216 382.400,288.307 381.574,289.832 380.100 C 290.344 379.605,290.874 379.200,291.008 379.200 C 291.142 379.200,292.103 378.326,293.143 377.258 C 294.183 376.191,295.436 375.102,295.928 374.839 C 297.044 374.241,299.579 371.947,303.762 367.751 C 309.043 362.452,310.353 360.807,309.300 360.797 C 309.135 360.796,308.550 360.123,308.000 359.303 C 306.920 357.692,306.021 356.575,304.300 354.709 C 303.695 354.052,303.200 353.392,303.200 353.241 C 303.200 353.090,302.615 352.339,301.900 351.573 C 301.185 350.806,300.079 349.486,299.442 348.640 C 298.805 347.794,297.320 346.138,296.142 344.960 C 294.964 343.781,294.000 342.719,294.000 342.598 C 294.000 342.478,293.235 341.608,292.300 340.665 C 291.365 339.723,289.970 338.153,289.200 337.176 C 287.266 334.722,283.458 330.642,280.643 328.007 C 276.415 324.049,274.800 322.386,274.800 321.989 C 274.800 321.775,274.500 321.600,274.133 321.600 C 273.767 321.600,273.575 321.492,273.706 321.360 C 274.061 321.005,259.531 306.800,258.812 306.800 C 258.677 306.800,257.205 305.495,255.542 303.900 C 251.392 299.921,247.200 296.149,246.000 295.313 C 244.967 294.594,243.480 293.373,242.575 292.500 C 242.290 292.225,241.909 291.998,241.729 291.997 C 241.548 291.995,240.500 291.102,239.400 290.013 C 238.300 288.925,237.247 288.026,237.060 288.017 C 236.874 288.008,236.217 287.460,235.600 286.800 C 233.946 285.029,233.205 285.255,230.138 288.465 C 228.632 290.040,225.706 292.965,223.636 294.965 C 218.714 299.718,215.758 302.675,211.570 307.032 C 209.684 308.994,207.149 311.554,205.938 312.720 L 203.735 314.839 200.787 312.120 C 199.166 310.624,195.670 307.172,193.019 304.448 C 190.369 301.725,186.691 298.035,184.846 296.248 C 183.001 294.462,179.311 290.771,176.646 288.047 C 173.981 285.323,170.108 281.453,168.040 279.447 C 165.972 277.441,162.282 273.755,159.840 271.256 C 157.398 268.756,153.707 265.066,151.637 263.056 C 149.568 261.045,145.698 257.172,143.037 254.448 C 140.377 251.725,136.691 248.035,134.846 246.248 C 133.001 244.462,129.311 240.771,126.646 238.047 C 123.981 235.323,120.113 231.453,118.052 229.447 C 113.593 225.108,108.221 219.733,103.752 215.139 C 101.965 213.303,98.275 209.631,95.552 206.981 C 92.828 204.330,89.376 200.834,87.880 199.213 L 85.161 196.265 87.280 194.062 C 88.446 192.851,91.006 190.316,92.968 188.430 C 97.325 184.242,100.282 181.286,105.035 176.364 C 107.035 174.294,109.960 171.368,111.535 169.862 C 114.745 166.795,114.971 166.054,113.200 164.400 C 112.540 163.783,111.992 163.126,111.983 162.940 C 111.974 162.753,111.075 161.700,109.987 160.600 C 108.898 159.500,108.005 158.466,108.003 158.303 C 108.000 158.040,106.995 156.746,105.784 155.447 C 105.555 155.201,105.058 154.550,104.679 154.000 C 103.860 152.810,100.121 148.652,96.100 144.458 C 94.505 142.795,93.200 141.323,93.200 141.188 C 93.200 140.469,78.995 125.939,78.640 126.294 C 78.508 126.425,78.400 126.233,78.400 125.867 C 78.400 125.500,78.225 125.200,78.011 125.200 C 77.614 125.200,75.951 123.585,71.993 119.357 C 69.358 116.542,65.278 112.734,62.824 110.800 C 61.847 110.030,60.277 108.635,59.335 107.700 C 58.392 106.765,57.522 106.000,57.402 106.000 C 57.281 106.000,56.219 105.036,55.040 103.858 C 53.862 102.680,52.206 101.195,51.360 100.558 C 50.514 99.921,49.194 98.815,48.427 98.100 C 47.661 97.385,46.910 96.800,46.759 96.800 C 46.608 96.800,45.948 96.305,45.291 95.700 C 43.425 93.979,42.308 93.080,40.697 92.000 C 39.877 91.450,39.204 90.865,39.203 90.700 C 39.198 90.149,38.209 90.443,37.400 91.235 " stroke="none" fill="#1b4145" fill-rule="evenodd"></path><path id="path2" d="" stroke="none" fill="#ff0000" fill-rule="evenodd"></path><path id="path3" d="M225.554 92.529 C 216.201 96.018,218.509 109.365,228.466 109.365 C 236.912 109.365,240.263 98.444,233.274 93.696 C 231.029 92.170,227.817 91.685,225.554 92.529 M270.706 92.376 C 261.124 95.454,263.037 109.346,273.046 109.371 C 281.810 109.392,285.174 98.131,277.798 93.464 C 275.989 92.320,272.532 91.790,270.706 92.376 M315.268 92.397 C 310.105 93.618,307.461 100.928,310.514 105.542 C 315.269 112.728,326.528 109.382,326.461 100.803 C 326.416 94.914,321.196 90.995,315.268 92.397 " stroke="none" fill="#f14742" fill-rule="evenodd"></path><path id="path4" d="M254.500 0.274 C 252.685 0.361,251.200 0.605,251.200 0.816 C 251.200 1.027,249.940 1.200,248.400 1.200 C 246.800 1.200,245.600 1.371,245.600 1.600 C 245.600 1.820,244.790 2.000,243.800 2.000 C 242.810 2.000,242.000 2.180,242.000 2.400 C 242.000 2.620,241.100 2.800,240.000 2.800 C 238.900 2.800,238.000 2.962,238.000 3.160 C 238.000 3.358,237.235 3.619,236.300 3.741 C 232.937 4.180,231.600 4.494,231.600 4.844 C 231.600 5.040,230.959 5.200,230.176 5.200 C 229.329 5.200,228.853 5.362,229.000 5.600 C 229.147 5.838,228.679 6.000,227.847 6.000 C 227.077 6.000,226.336 6.180,226.200 6.400 C 226.064 6.620,225.434 6.800,224.800 6.800 C 224.166 6.800,223.536 6.980,223.400 7.200 C 223.264 7.420,222.803 7.600,222.376 7.600 C 221.949 7.600,221.600 7.780,221.600 8.000 C 221.600 8.220,221.105 8.401,220.500 8.402 C 219.895 8.404,218.884 8.674,218.254 9.002 C 217.624 9.331,216.893 9.600,216.629 9.600 C 216.366 9.600,215.405 9.960,214.494 10.400 C 213.584 10.840,212.667 11.200,212.457 11.200 C 211.925 11.200,208.629 12.934,208.467 13.300 C 208.393 13.465,207.988 13.600,207.567 13.600 C 207.145 13.600,206.800 13.780,206.800 14.000 C 206.800 14.220,206.440 14.400,206.000 14.400 C 205.560 14.400,205.200 14.580,205.200 14.800 C 205.200 15.020,204.840 15.200,204.400 15.200 C 203.960 15.200,203.600 15.380,203.600 15.600 C 203.600 15.820,203.240 16.000,202.800 16.000 C 202.360 16.000,202.000 16.180,202.000 16.400 C 202.000 16.620,201.655 16.800,201.233 16.800 C 200.812 16.800,200.407 16.935,200.333 17.100 C 200.260 17.265,199.345 17.833,198.300 18.363 C 197.255 18.892,196.400 19.477,196.400 19.663 C 196.400 19.848,196.122 20.000,195.783 20.000 C 195.444 20.000,194.780 20.360,194.308 20.800 C 193.836 21.240,193.213 21.600,192.925 21.600 C 192.636 21.600,192.400 21.780,192.400 22.000 C 192.400 22.220,192.170 22.400,191.888 22.400 C 191.607 22.400,191.117 22.760,190.800 23.200 C 190.483 23.640,190.079 24.000,189.902 24.000 C 189.616 24.000,186.042 26.277,184.995 27.125 C 184.773 27.306,184.243 27.648,183.818 27.886 C 181.376 29.252,165.200 45.344,165.200 46.407 C 165.200 46.623,165.020 46.800,164.800 46.800 C 164.580 46.800,164.400 46.998,164.400 47.240 C 164.400 47.481,163.905 48.156,163.300 48.740 C 162.695 49.323,161.945 50.295,161.632 50.900 C 161.320 51.505,160.915 52.000,160.732 52.000 C 160.550 52.000,160.400 52.360,160.400 52.800 C 160.400 53.240,160.247 53.600,160.061 53.600 C 159.874 53.600,159.397 54.320,159.000 55.200 C 158.603 56.080,158.126 56.800,157.939 56.800 C 157.753 56.800,157.600 57.160,157.600 57.600 C 157.600 58.040,157.420 58.400,157.200 58.400 C 156.980 58.400,156.800 58.642,156.800 58.938 C 156.800 59.234,156.440 59.802,156.000 60.200 C 155.560 60.598,155.200 61.346,155.200 61.862 C 155.200 62.378,155.065 62.801,154.900 62.803 C 154.541 62.807,153.600 64.744,153.600 65.480 C 153.600 65.766,153.420 66.000,153.200 66.000 C 152.980 66.000,152.800 66.360,152.800 66.800 C 152.800 67.240,152.620 67.600,152.400 67.600 C 152.180 67.600,152.000 67.960,152.000 68.400 C 152.000 68.840,151.820 69.200,151.600 69.200 C 151.380 69.200,151.200 69.740,151.200 70.400 C 151.200 71.060,151.020 71.600,150.800 71.600 C 150.580 71.600,150.400 72.140,150.400 72.800 C 150.400 73.460,150.220 74.000,150.000 74.000 C 149.780 74.000,149.600 74.439,149.600 74.976 C 149.600 75.513,149.420 76.064,149.200 76.200 C 148.980 76.336,148.800 76.887,148.800 77.424 C 148.800 77.961,148.620 78.400,148.400 78.400 C 148.180 78.400,148.000 79.120,148.000 80.000 C 148.000 80.880,147.820 81.600,147.600 81.600 C 147.380 81.600,147.200 82.500,147.200 83.600 C 147.200 84.700,147.020 85.600,146.800 85.600 C 146.580 85.600,146.400 86.489,146.400 87.576 C 146.400 88.663,146.220 89.664,146.000 89.800 C 145.750 89.955,145.600 93.996,145.600 100.600 C 145.600 107.204,145.750 111.245,146.000 111.400 C 146.220 111.536,146.400 112.627,146.400 113.824 C 146.400 115.021,146.580 116.000,146.800 116.000 C 147.020 116.000,147.200 116.889,147.200 117.976 C 147.200 119.063,147.380 120.064,147.600 120.200 C 147.820 120.336,148.000 120.966,148.000 121.600 C 148.000 122.234,148.180 122.864,148.400 123.000 C 148.620 123.136,148.800 123.676,148.800 124.200 C 148.800 124.724,148.980 125.264,149.200 125.400 C 149.420 125.536,149.600 126.166,149.600 126.800 C 149.600 127.434,149.780 128.064,150.000 128.200 C 150.220 128.336,150.400 128.797,150.400 129.224 C 150.400 129.651,150.580 130.000,150.800 130.000 C 151.020 130.000,151.200 130.540,151.200 131.200 C 151.200 131.860,151.380 132.400,151.600 132.400 C 151.820 132.400,152.000 132.760,152.000 133.200 C 152.000 133.640,152.147 134.000,152.328 134.000 C 152.508 134.000,152.900 134.898,153.199 135.996 C 153.498 137.093,153.829 137.905,153.934 137.799 C 154.040 137.694,154.571 138.506,155.114 139.604 C 155.657 140.702,156.259 141.600,156.451 141.600 C 156.643 141.600,156.800 141.960,156.800 142.400 C 156.800 142.840,156.980 143.200,157.200 143.200 C 157.420 143.200,157.600 143.560,157.600 144.000 C 157.600 144.440,157.780 144.800,158.000 144.800 C 158.220 144.800,158.400 145.062,158.400 145.382 C 158.400 145.895,159.751 148.229,160.740 149.425 C 160.934 149.659,161.324 150.289,161.609 150.825 C 161.893 151.361,162.457 152.091,162.863 152.447 C 163.268 152.803,163.600 153.254,163.600 153.449 C 163.600 153.644,164.320 154.569,165.200 155.503 C 166.080 156.437,166.800 157.287,166.800 157.391 C 166.800 157.816,178.348 169.200,178.780 169.200 C 179.037 169.200,179.136 169.380,179.000 169.600 C 178.864 169.820,178.961 170.000,179.216 170.000 C 179.471 170.000,180.156 170.507,180.740 171.126 C 181.323 171.745,183.060 173.090,184.600 174.115 C 186.140 175.140,187.799 176.343,188.286 176.789 C 188.773 177.235,189.408 177.600,189.697 177.600 C 189.987 177.600,190.483 177.960,190.800 178.400 C 191.117 178.840,191.607 179.200,191.888 179.200 C 192.170 179.200,192.400 179.380,192.400 179.600 C 192.400 179.820,192.670 180.000,193.000 180.000 C 193.330 180.000,193.600 180.180,193.600 180.400 C 193.600 180.620,193.870 180.800,194.200 180.800 C 194.530 180.800,194.800 180.980,194.800 181.200 C 194.800 181.420,195.120 181.600,195.512 181.600 C 195.903 181.600,196.483 181.960,196.800 182.400 C 197.117 182.840,197.697 183.200,198.088 183.200 C 198.480 183.200,198.800 183.380,198.800 183.600 C 198.800 183.820,199.145 184.000,199.567 184.000 C 199.988 184.000,200.393 184.135,200.467 184.300 C 200.668 184.753,204.799 186.849,204.806 186.502 C 204.809 186.336,204.946 186.411,205.110 186.668 C 205.274 186.925,205.672 187.195,205.994 187.268 C 206.317 187.341,206.825 187.627,207.123 187.904 C 207.421 188.181,207.830 188.305,208.032 188.180 C 208.235 188.055,208.400 188.143,208.400 188.376 C 208.400 188.609,208.760 188.800,209.200 188.800 C 209.640 188.800,210.000 188.980,210.000 189.200 C 210.000 189.420,210.360 189.600,210.800 189.600 C 211.240 189.600,211.600 189.780,211.600 190.000 C 211.600 190.220,211.939 190.400,212.354 190.400 C 212.769 190.400,213.624 190.669,214.254 190.998 C 214.884 191.326,215.715 191.596,216.100 191.598 C 216.485 191.599,216.800 191.780,216.800 192.000 C 216.800 192.220,217.340 192.400,218.000 192.400 C 218.660 192.400,219.200 192.580,219.200 192.800 C 219.200 193.020,219.740 193.200,220.400 193.200 C 221.060 193.200,221.600 193.380,221.600 193.600 C 221.600 193.820,222.140 194.000,222.800 194.000 C 223.460 194.000,224.000 194.180,224.000 194.400 C 224.000 194.620,224.439 194.800,224.976 194.800 C 225.513 194.800,226.064 194.980,226.200 195.200 C 226.336 195.420,226.876 195.600,227.400 195.600 C 227.924 195.600,228.464 195.780,228.600 196.000 C 228.736 196.220,229.467 196.400,230.224 196.400 C 230.981 196.400,231.600 196.580,231.600 196.800 C 231.600 197.020,232.320 197.200,233.200 197.200 C 234.080 197.200,234.800 197.380,234.800 197.600 C 234.800 197.820,235.520 198.000,236.400 198.000 C 237.280 198.000,238.000 198.180,238.000 198.400 C 238.000 198.620,238.720 198.800,239.600 198.800 C 240.480 198.800,241.200 198.949,241.200 199.132 C 241.200 199.314,242.235 199.504,243.500 199.554 C 244.765 199.604,245.860 199.815,245.933 200.022 C 246.007 200.230,247.042 200.400,248.233 200.400 L 250.400 200.400 250.400 203.000 C 250.400 204.467,250.574 205.600,250.800 205.600 C 251.317 205.600,251.338 214.901,250.823 215.420 C 250.615 215.629,250.408 217.105,250.362 218.700 C 250.316 220.295,250.126 221.600,249.939 221.600 C 249.753 221.600,249.600 222.320,249.600 223.200 C 249.600 224.080,249.420 224.800,249.200 224.800 C 248.980 224.800,248.800 225.419,248.800 226.176 C 248.800 226.933,248.620 227.664,248.400 227.800 C 248.180 227.936,248.000 228.487,248.000 229.024 C 248.000 229.561,247.820 230.000,247.600 230.000 C 247.380 230.000,247.200 230.414,247.200 230.920 C 247.200 231.426,247.051 232.011,246.870 232.220 C 246.688 232.429,246.290 233.410,245.986 234.400 C 245.682 235.390,245.316 236.290,245.172 236.400 C 245.028 236.510,244.218 238.040,243.371 239.800 C 242.525 241.560,241.510 243.291,241.116 243.647 C 240.722 244.003,240.400 244.548,240.400 244.859 C 240.400 245.169,240.040 245.683,239.600 246.000 C 239.160 246.317,238.800 246.786,238.800 247.042 C 238.800 247.298,237.629 248.713,236.197 250.188 C 234.766 251.662,233.697 253.033,233.821 253.234 C 233.945 253.435,233.857 253.600,233.624 253.600 C 233.391 253.600,233.200 253.960,233.200 254.400 C 233.200 255.154,233.467 255.200,237.800 255.200 C 240.600 255.200,242.400 255.043,242.400 254.800 C 242.400 254.578,243.467 254.400,244.800 254.400 C 246.133 254.400,247.200 254.222,247.200 254.000 C 247.200 253.780,247.920 253.600,248.800 253.600 C 249.680 253.600,250.400 253.420,250.400 253.200 C 250.400 252.980,250.929 252.800,251.576 252.800 C 252.223 252.800,252.864 252.620,253.000 252.400 C 253.136 252.180,253.687 252.000,254.224 252.000 C 254.761 252.000,255.200 251.820,255.200 251.600 C 255.200 251.380,255.524 251.200,255.920 251.200 C 256.814 251.200,258.793 250.306,258.797 249.900 C 258.799 249.735,259.053 249.600,259.362 249.600 C 260.028 249.600,263.341 247.932,263.533 247.500 C 263.607 247.335,264.012 247.200,264.433 247.200 C 264.855 247.200,265.200 247.020,265.200 246.800 C 265.200 246.580,265.520 246.400,265.912 246.400 C 266.303 246.400,266.883 246.040,267.200 245.600 C 267.517 245.160,268.057 244.800,268.400 244.800 C 268.743 244.800,269.283 244.440,269.600 244.000 C 269.917 243.560,270.407 243.200,270.687 243.200 C 270.968 243.200,271.963 242.480,272.897 241.600 C 273.831 240.720,274.723 240.000,274.879 240.000 C 275.245 240.000,280.800 234.416,280.800 234.048 C 280.800 233.894,281.520 232.972,282.400 232.000 C 283.280 231.028,284.000 230.088,284.000 229.912 C 284.000 229.737,284.540 229.028,285.200 228.337 C 285.860 227.646,286.400 226.838,286.400 226.541 C 286.400 226.243,286.580 226.000,286.800 226.000 C 287.020 226.000,287.200 225.801,287.200 225.558 C 287.200 225.315,287.740 224.316,288.400 223.338 C 289.060 222.360,289.601 221.344,289.603 221.080 C 289.604 220.816,289.954 220.071,290.380 219.425 C 290.806 218.779,291.064 218.104,290.954 217.925 C 290.843 217.746,290.943 217.600,291.176 217.600 C 291.409 217.600,291.600 217.060,291.600 216.400 C 291.600 215.740,291.780 215.200,292.000 215.200 C 292.220 215.200,292.400 214.660,292.400 214.000 C 292.400 213.340,292.580 212.800,292.800 212.800 C 293.020 212.800,293.200 212.260,293.200 211.600 C 293.200 210.940,293.380 210.400,293.600 210.400 C 293.820 210.400,294.000 209.770,294.000 209.000 C 294.000 208.230,294.180 207.600,294.400 207.600 C 294.620 207.600,294.800 206.700,294.800 205.600 C 294.800 204.500,294.980 203.600,295.200 203.600 C 295.420 203.600,295.600 202.912,295.600 202.071 L 295.600 200.543 297.700 200.449 C 298.855 200.397,299.971 200.185,300.180 199.977 C 300.389 199.770,301.503 199.600,302.656 199.600 C 303.809 199.600,304.864 199.420,305.000 199.200 C 305.136 198.980,305.957 198.800,306.824 198.800 C 307.691 198.800,308.400 198.620,308.400 198.400 C 308.400 198.180,309.109 198.000,309.976 198.000 C 310.843 198.000,311.664 197.820,311.800 197.600 C 311.936 197.380,312.566 197.200,313.200 197.200 C 313.834 197.200,314.464 197.020,314.600 196.800 C 314.736 196.580,315.467 196.400,316.224 196.400 C 316.981 196.400,317.600 196.220,317.600 196.000 C 317.600 195.780,318.140 195.600,318.800 195.600 C 319.460 195.600,320.000 195.420,320.000 195.200 C 320.000 194.980,320.439 194.800,320.976 194.800 C 321.513 194.800,322.064 194.620,322.200 194.400 C 322.336 194.180,322.887 194.000,323.424 194.000 C 323.961 194.000,324.400 193.820,324.400 193.600 C 324.400 193.380,324.940 193.200,325.600 193.200 C 326.260 193.200,326.800 193.020,326.800 192.800 C 326.800 192.580,327.340 192.400,328.000 192.400 C 328.660 192.400,329.200 192.243,329.200 192.050 C 329.200 191.723,331.434 191.028,332.100 191.146 C 332.265 191.176,332.400 191.009,332.400 190.776 C 332.400 190.543,332.548 190.444,332.729 190.556 C 332.909 190.668,333.560 190.498,334.174 190.180 C 334.789 189.861,335.496 189.596,335.746 189.591 C 335.996 189.586,336.650 189.230,337.200 188.800 C 337.750 188.370,338.515 188.014,338.900 188.009 C 339.285 188.004,339.600 187.820,339.600 187.600 C 339.600 187.380,339.870 187.200,340.200 187.200 C 340.530 187.200,340.800 187.009,340.800 186.776 C 340.800 186.543,340.965 186.455,341.168 186.580 C 341.370 186.705,341.779 186.581,342.077 186.304 C 342.375 186.027,342.883 185.741,343.206 185.668 C 343.528 185.595,343.926 185.325,344.090 185.068 C 344.254 184.811,344.391 184.745,344.394 184.923 C 344.399 185.205,346.662 184.138,347.200 183.600 C 347.596 183.204,349.815 181.946,350.500 181.729 C 350.885 181.607,351.200 181.348,351.200 181.153 C 351.200 180.959,351.494 180.800,351.853 180.800 C 352.212 180.800,352.797 180.484,353.153 180.097 C 353.509 179.711,354.295 179.140,354.900 178.830 C 355.505 178.519,356.000 178.115,356.000 177.932 C 356.000 177.750,356.230 177.600,356.512 177.600 C 356.793 177.600,357.283 177.240,357.600 176.800 C 357.917 176.360,358.414 176.000,358.705 176.000 C 358.996 176.000,359.631 175.625,360.117 175.166 C 360.603 174.707,361.532 174.054,362.182 173.713 C 362.832 173.373,364.033 172.398,364.851 171.547 C 365.668 170.696,366.531 170.000,366.769 170.000 C 367.006 170.000,367.200 169.820,367.200 169.600 C 367.200 169.380,367.375 169.200,367.589 169.200 C 368.105 169.200,378.400 158.681,378.400 158.154 C 378.400 158.035,379.095 157.249,379.945 156.408 C 380.795 155.566,381.915 154.275,382.434 153.539 C 382.953 152.803,383.698 151.851,384.089 151.425 C 384.480 150.998,384.800 150.413,384.800 150.125 C 384.800 149.836,384.950 149.600,385.132 149.600 C 385.315 149.600,385.720 149.105,386.032 148.500 C 386.345 147.895,386.915 147.051,387.300 146.625 C 387.685 146.198,388.000 145.613,388.000 145.325 C 388.000 145.036,388.180 144.800,388.400 144.800 C 388.620 144.800,388.800 144.517,388.800 144.171 C 388.800 143.826,389.072 143.271,389.404 142.939 C 389.736 142.607,389.905 142.170,389.780 141.968 C 389.655 141.765,389.703 141.600,389.887 141.600 C 390.070 141.600,390.576 140.792,391.010 139.804 C 391.445 138.816,391.935 138.006,392.100 138.004 C 392.265 138.002,392.400 137.640,392.400 137.200 C 392.400 136.760,392.580 136.400,392.800 136.400 C 393.020 136.400,393.200 135.860,393.200 135.200 C 393.200 134.540,393.380 134.000,393.600 134.000 C 393.820 134.000,394.000 133.640,394.000 133.200 C 394.000 132.760,394.180 132.400,394.400 132.400 C 394.620 132.400,394.800 132.051,394.800 131.624 C 394.800 131.197,394.980 130.736,395.200 130.600 C 395.420 130.464,395.600 129.913,395.600 129.376 C 395.600 128.839,395.780 128.400,396.000 128.400 C 396.220 128.400,396.400 127.860,396.400 127.200 C 396.400 126.540,396.580 126.000,396.800 126.000 C 397.020 126.000,397.200 125.269,397.200 124.376 C 397.200 123.396,397.358 122.851,397.600 123.000 C 397.833 123.144,398.000 122.745,398.000 122.047 C 398.000 121.387,398.180 120.736,398.400 120.600 C 398.620 120.464,398.800 119.589,398.800 118.656 C 398.800 117.723,399.025 116.735,399.300 116.460 C 399.682 116.078,399.800 112.417,399.800 100.913 C 399.800 89.232,399.688 85.829,399.300 85.700 C 398.991 85.597,398.800 84.789,398.800 83.590 C 398.800 82.522,398.620 81.536,398.400 81.400 C 398.180 81.264,398.000 80.634,398.000 80.000 C 398.000 79.366,397.820 78.736,397.600 78.600 C 397.380 78.464,397.200 77.813,397.200 77.153 C 397.200 76.455,397.033 76.056,396.800 76.200 C 396.564 76.346,396.400 75.897,396.400 75.104 C 396.400 74.365,396.221 73.581,396.002 73.362 C 395.784 73.144,395.565 72.491,395.517 71.911 C 395.470 71.332,395.288 70.945,395.115 71.052 C 394.942 71.160,394.800 70.787,394.800 70.224 C 394.800 69.661,394.620 69.200,394.400 69.200 C 394.180 69.200,394.000 68.840,394.000 68.400 C 394.000 67.960,393.820 67.600,393.600 67.600 C 393.380 67.600,393.200 67.240,393.200 66.800 C 393.200 66.360,393.053 66.000,392.872 66.000 C 392.692 66.000,392.300 65.100,392.000 64.000 C 391.700 62.900,391.297 62.000,391.104 62.000 C 390.911 62.000,390.851 61.841,390.971 61.647 C 391.091 61.453,390.832 60.839,390.395 60.284 C 389.958 59.728,389.600 59.092,389.600 58.870 C 389.600 58.648,389.433 58.407,389.230 58.333 C 389.026 58.260,388.801 57.930,388.730 57.600 C 388.658 57.270,388.285 56.709,387.900 56.353 C 387.515 55.997,387.200 55.427,387.200 55.086 C 387.200 54.746,387.034 54.407,386.830 54.333 C 386.627 54.260,386.402 53.930,386.330 53.600 C 386.259 53.270,385.885 52.709,385.500 52.353 C 385.115 51.997,384.800 51.524,384.800 51.301 C 384.800 51.079,384.080 50.155,383.200 49.248 C 382.320 48.341,381.600 47.402,381.600 47.160 C 381.600 46.919,381.060 46.217,380.400 45.600 C 379.740 44.983,379.200 44.356,379.200 44.205 C 379.200 43.648,367.287 31.600,366.736 31.600 C 366.508 31.600,365.844 31.098,365.260 30.485 C 364.677 29.871,363.570 28.935,362.800 28.404 C 362.030 27.873,361.310 27.331,361.200 27.200 C 360.731 26.641,358.400 25.171,358.400 25.434 C 358.400 25.593,358.064 25.335,357.653 24.861 C 357.242 24.388,356.742 24.000,356.541 24.000 C 356.341 24.000,355.917 23.640,355.600 23.200 C 355.283 22.760,354.703 22.400,354.312 22.400 C 353.920 22.400,353.600 22.220,353.600 22.000 C 353.600 21.780,353.319 21.600,352.976 21.600 C 352.633 21.600,352.464 21.420,352.600 21.200 C 352.736 20.980,352.477 20.800,352.024 20.800 C 351.571 20.800,351.200 20.620,351.200 20.400 C 351.200 20.180,350.880 20.000,350.488 20.000 C 350.097 20.000,349.517 19.640,349.200 19.200 C 348.883 18.760,348.303 18.400,347.912 18.400 C 347.520 18.400,347.200 18.220,347.200 18.000 C 347.200 17.780,346.840 17.600,346.400 17.600 C 345.960 17.600,345.600 17.420,345.600 17.200 C 345.600 16.980,345.345 16.800,345.033 16.800 C 344.722 16.800,344.404 16.612,344.327 16.382 C 344.251 16.152,343.786 15.934,343.294 15.897 C 342.802 15.860,342.400 15.688,342.400 15.515 C 342.400 15.342,342.040 15.200,341.600 15.200 C 341.160 15.200,340.800 15.020,340.800 14.800 C 340.800 14.580,340.530 14.400,340.200 14.400 C 339.870 14.400,339.600 14.220,339.600 14.000 C 339.600 13.780,339.240 13.600,338.800 13.600 C 338.360 13.600,338.000 13.420,338.000 13.200 C 338.000 12.980,337.640 12.800,337.200 12.800 C 336.760 12.800,336.400 12.620,336.400 12.400 C 336.400 12.180,336.040 12.000,335.600 12.000 C 335.160 12.000,334.800 11.820,334.800 11.600 C 334.800 11.380,334.438 11.200,333.995 11.200 C 333.552 11.200,332.877 11.041,332.495 10.847 C 332.113 10.652,331.260 10.271,330.600 10.000 C 329.940 9.729,329.093 9.351,328.717 9.161 C 328.342 8.971,327.303 8.698,326.409 8.555 C 325.514 8.412,324.686 8.139,324.568 7.947 C 324.449 7.756,323.903 7.600,323.353 7.600 C 322.788 7.600,322.460 7.426,322.600 7.200 C 322.747 6.962,322.271 6.800,321.424 6.800 C 320.641 6.800,320.000 6.640,320.000 6.444 C 320.000 6.248,319.325 5.973,318.500 5.832 C 314.849 5.210,314.400 5.093,314.400 4.756 C 314.400 4.560,313.860 4.400,313.200 4.400 C 312.540 4.400,312.000 4.220,312.000 4.000 C 312.000 3.780,311.100 3.600,310.000 3.600 C 308.900 3.600,308.000 3.420,308.000 3.200 C 308.000 2.980,307.190 2.800,306.200 2.800 C 305.210 2.800,304.400 2.620,304.400 2.400 C 304.400 2.180,303.500 2.000,302.400 2.000 C 301.300 2.000,300.400 1.820,300.400 1.600 C 300.400 1.372,299.211 1.200,297.633 1.200 C 295.807 1.200,294.811 1.034,294.703 0.710 C 294.541 0.224,262.750 -0.120,254.500 0.274 M233.274 93.696 C 240.263 98.444,236.912 109.365,228.466 109.365 C 224.978 109.365,222.535 108.056,220.939 105.332 C 216.178 97.208,225.500 88.414,233.274 93.696 M277.798 93.464 C 285.174 98.131,281.810 109.392,273.046 109.371 C 263.037 109.346,261.124 95.454,270.706 92.376 C 272.532 91.790,275.989 92.320,277.798 93.464 M320.175 92.435 C 325.306 93.727,327.994 99.912,325.517 104.726 C 321.410 112.707,309.756 110.208,309.279 101.244 C 308.949 95.037,314.069 90.898,320.175 92.435 " stroke="none" fill="#ffd24d" fill-rule="evenodd"></path></g></svg>